<svg version="1.1" id="Layer_1" xmlns="http://www.w3.org/2000/svg" x="0" y="0" viewBox="0 0 339.4 338.1" xml:space="preserve"><style>.st0{fill:#fff}</style><path class="st0" d="M59.6 238.6l10.2 11.5"/><path transform="rotate(-41.721 64.705 244.364)" class="st0" d="M62.7 236.6h3.9V252h-3.9z"/><path class="st0" d="M80.8 232c0-9.3 6.9-17 16.5-17 5.9 0 9.5 2.1 12.7 5.2l-2.5 2.7c-2.7-2.6-5.8-4.5-10.2-4.5-7.2 0-12.6 5.9-12.6 13.4v.1c0 7.5 5.5 13.5 12.6 13.5 4.5 0 7.4-1.7 10.5-4.7l2.4 2.4c-3.4 3.4-7.1 5.7-13 5.7-9.4 0-16.4-7.4-16.4-16.8zM39.1 231.9c0-9.1 6.8-17 16.7-17 9.9 0 16.6 7.8 16.6 16.8v.1c0 9-6.8 16.9-16.7 16.9s-16.6-7.8-16.6-16.8zm29.5 0c0-7.5-5.4-13.6-12.9-13.6s-12.8 6-12.8 13.4v.1c0 7.4 5.4 13.5 12.9 13.5 7.4 0 12.8-6 12.8-13.4zM49.2 277.6h2l7.1 16.6h-2.6l-1.7-4.1h-7.9l-1.6 4.1h-2.6l7.3-16.6zm4 10.6l-3.1-7.6-3.1 7.6h6.2zM77.2 277.6h3.4l5.3 12.6h.1l5.2-12.6h3.4v16.6h-2.3v-13.7l-5.6 13.7h-1.5l-5.6-13.7v13.7h-2.3v-16.6zM102.8 288.7c0-.8.2-1.6.5-2.3.3-.7.7-1.3 1.3-1.9.5-.5 1.2-1 1.9-1.3.7-.3 1.5-.5 2.3-.5s1.6.2 2.3.5c.7.3 1.3.7 1.9 1.3.5.5 1 1.2 1.3 1.9.3.7.5 1.5.5 2.3s-.2 1.6-.5 2.3c-.3.7-.7 1.3-1.3 1.9-.5.5-1.2.9-1.9 1.2-.7.3-1.5.5-2.3.5s-1.6-.2-2.3-.5c-.7-.3-1.3-.7-1.9-1.2-.5-.5-1-1.1-1.3-1.9-.4-.7-.5-1.5-.5-2.3zm2.2 0c0 .6.1 1.1.3 1.6.2.5.4.9.7 1.2.3.3.7.6 1.2.8.5.2 1 .3 1.5.3s1.1-.1 1.5-.3c.5-.2.8-.5 1.2-.8.3-.3.6-.7.7-1.2.2-.5.3-1 .3-1.6 0-.6-.1-1.1-.3-1.6-.2-.5-.4-.9-.7-1.2-.3-.3-.7-.6-1.2-.8-.5-.2-1-.3-1.5-.3s-1.1.1-1.5.3c-.5.2-.8.5-1.2.8-.3.3-.6.7-.7 1.2-.2.5-.3 1-.3 1.6zM122.6 276.5h2.1v17.8h-2.1v-17.8zM134.3 290.8c.4.6.9 1.1 1.6 1.4.6.3 1.3.4 2 .4.4 0 .8-.1 1.2-.2.4-.1.7-.3 1.1-.5.3-.2.6-.5.8-.9.2-.3.3-.7.3-1.2 0-.6-.2-1.1-.6-1.5-.4-.3-.9-.6-1.5-.8-.6-.2-1.3-.4-2-.7-.7-.2-1.4-.5-2-.9-.6-.4-1.1-.9-1.5-1.5-.4-.6-.6-1.5-.6-2.6 0-.5.1-1 .3-1.6.2-.5.5-1 1-1.5s1-.8 1.8-1.1c.7-.3 1.6-.5 2.6-.5.9 0 1.8.1 2.6.4s1.6.8 2.2 1.5l-1.8 1.7c-.3-.4-.7-.8-1.2-1.1-.5-.3-1.1-.4-1.8-.4-.6 0-1.1.1-1.6.2-.4.2-.7.4-1 .6-.3.3-.4.5-.5.8-.1.3-.2.6-.2.8 0 .7.2 1.2.6 1.6.4.4.9.7 1.5.9.6.2 1.3.4 2 .6.7.2 1.4.5 2 .8.6.3 1.1.8 1.5 1.4.4.6.6 1.4.6 2.4 0 .8-.2 1.5-.5 2.2-.3.6-.7 1.2-1.2 1.6-.5.4-1.1.8-1.8 1-.7.2-1.5.4-2.3.4-1.1 0-2.1-.2-3-.6s-1.7-1-2.3-1.7l1.7-1.4zM152.5 290.8c.4.6.9 1.1 1.6 1.4.6.3 1.3.4 2 .4.4 0 .8-.1 1.2-.2.4-.1.7-.3 1.1-.5.3-.2.6-.5.8-.9.2-.3.3-.7.3-1.2 0-.6-.2-1.1-.6-1.5-.4-.3-.9-.6-1.5-.8-.6-.2-1.3-.4-2-.7-.7-.2-1.4-.5-2-.9-.6-.4-1.1-.9-1.5-1.5-.4-.6-.6-1.5-.6-2.6 0-.5.1-1 .3-1.6.2-.5.5-1 1-1.5s1-.8 1.8-1.1c.7-.3 1.6-.5 2.6-.5.9 0 1.8.1 2.6.4s1.6.8 2.2 1.5l-1.8 1.7c-.3-.4-.7-.8-1.2-1.1-.5-.3-1.1-.4-1.8-.4-.6 0-1.1.1-1.6.2-.4.2-.7.4-1 .6-.3.3-.4.5-.5.8-.1.3-.2.6-.2.8 0 .7.2 1.2.6 1.6.4.4.9.7 1.5.9.6.2 1.3.4 2 .6.7.2 1.4.5 2 .8.6.3 1.1.8 1.5 1.4.4.6.6 1.4.6 2.4 0 .8-.2 1.5-.5 2.2-.3.6-.7 1.2-1.2 1.6-.5.4-1.1.8-1.8 1-.7.2-1.5.4-2.3.4-1.1 0-2.1-.2-3-.6s-1.7-1-2.3-1.7l1.7-1.4zM170.3 277.6h2.3v16.6h-2.3v-16.6zM193.7 277.6h5.9c1.1 0 1.9.1 2.6.4a5 5 0 011.6 1.1c.4.4.7.9.8 1.5.2.6.2 1.1.2 1.6s-.1 1.1-.2 1.6c-.2.6-.4 1.1-.8 1.5a5 5 0 01-1.6 1.1c-.7.3-1.6.4-2.6.4H196v7.3h-2.3v-16.5zm2.2 7.3h3c.4 0 .9 0 1.3-.1s.8-.2 1.2-.4c.3-.2.6-.5.8-.8.2-.4.3-.8.3-1.4 0-.6-.1-1-.3-1.4-.2-.4-.5-.6-.8-.8-.3-.2-.7-.3-1.2-.4-.4-.1-.9-.1-1.3-.1h-3v5.4zM212.2 283.1h2.1v1.7c.1-.3.3-.6.6-.8.2-.2.5-.5.8-.6.3-.2.6-.3 1-.4.3-.1.7-.2 1-.2.3 0 .7 0 .9.1l-.1 2.3c-.2 0-.3-.1-.5-.1h-.5c-1 0-1.8.3-2.4.9-.5.6-.8 1.5-.8 2.7v5.6h-2.1v-11.2zM225.1 288.7c0-.8.2-1.6.5-2.3.3-.7.7-1.3 1.3-1.9s1.2-1 1.9-1.3c.7-.3 1.5-.5 2.3-.5s1.6.2 2.3.5c.7.3 1.3.7 1.9 1.3.5.5 1 1.2 1.3 1.9.3.7.5 1.5.5 2.3s-.2 1.6-.5 2.3c-.3.7-.7 1.3-1.3 1.9-.5.5-1.2.9-1.9 1.2-.7.3-1.5.5-2.3.5s-1.6-.2-2.3-.5c-.7-.3-1.3-.7-1.9-1.2s-1-1.1-1.3-1.9c-.3-.7-.5-1.5-.5-2.3zm2.3 0c0 .6.1 1.1.3 1.6.2.5.4.9.7 1.2.3.3.7.6 1.2.8.5.2 1 .3 1.5.3.6 0 1.1-.1 1.5-.3.5-.2.8-.5 1.2-.8.3-.3.6-.7.7-1.2.2-.5.3-1 .3-1.6 0-.6-.1-1.1-.3-1.6-.2-.5-.4-.9-.7-1.2-.3-.3-.7-.6-1.2-.8-.5-.2-1-.3-1.5-.3-.6 0-1.1.1-1.5.3-.5.2-.8.5-1.2.8-.3.3-.6.7-.7 1.2-.2.5-.3 1-.3 1.6zM247.1 283.1v12.7c0 .3 0 .7-.1 1.1 0 .5-.2.9-.4 1.3s-.5.8-1 1.1c-.5.3-1.1.5-2 .5h-.7c-.2 0-.5-.1-.7-.2l.2-2c.1 0 .3.1.4.1.2 0 .3.1.4.1.6 0 1-.2 1.2-.6.2-.4.3-.9.3-1.6V283h2.4zm-2.6-4c0-.4.2-.8.5-1.1.3-.3.7-.5 1.1-.5.4 0 .8.2 1.1.5.3.3.5.7.5 1.1 0 .4-.2.8-.5 1.1-.3.3-.7.5-1.1.5-.4 0-.8-.2-1.1-.5-.4-.3-.5-.7-.5-1.1zM257.2 289.5c0 .5.1.9.3 1.3.2.4.5.7.8 1 .3.3.7.5 1.2.7.5.2.9.2 1.4.2.7 0 1.2-.2 1.7-.5s.9-.7 1.3-1.2l1.6 1.2c-1.2 1.5-2.8 2.3-4.9 2.3-.9 0-1.7-.1-2.4-.4-.7-.3-1.3-.7-1.8-1.2s-.9-1.1-1.1-1.9c-.3-.7-.4-1.5-.4-2.3 0-.8.1-1.6.4-2.3.3-.7.7-1.3 1.2-1.9s1.1-.9 1.8-1.2c.7-.3 1.5-.4 2.3-.4 1 0 1.8.2 2.5.5s1.2.8 1.7 1.4c.4.6.8 1.2 1 1.9.2.7.3 1.4.3 2.1v.8h-8.9zm6.7-1.7c0-.5-.1-.9-.2-1.3s-.3-.7-.6-1c-.3-.3-.6-.5-1-.7-.4-.2-.9-.2-1.4-.2-.5 0-1 .1-1.4.3-.4.2-.8.5-1.1.8-.3.3-.5.7-.7 1-.2.4-.2.8-.2 1.1h6.6zM281.8 286.1c-.4-.4-.8-.7-1.2-.9-.4-.2-.9-.3-1.5-.3s-1.1.1-1.5.3c-.4.2-.8.5-1.1.9-.3.4-.5.8-.7 1.3-.1.5-.2 1-.2 1.5s.1 1 .3 1.5c.2.5.4.9.7 1.2.3.3.7.6 1.1.8.4.2.9.3 1.5.3s1.1-.1 1.5-.3c.4-.2.8-.5 1.2-.9l1.5 1.5c-.5.6-1.2 1.1-1.9 1.3-.7.3-1.5.4-2.3.4-.9 0-1.6-.1-2.4-.4-.7-.3-1.3-.7-1.8-1.2s-.9-1.1-1.2-1.8c-.3-.7-.4-1.5-.4-2.4 0-.9.1-1.7.4-2.4.3-.7.7-1.3 1.2-1.9.5-.5 1.1-.9 1.8-1.2.7-.3 1.5-.4 2.4-.4.8 0 1.6.1 2.3.4.7.3 1.4.7 1.9 1.3l-1.6 1.4zM296.3 284.9h-3v6c0 .3.1.6.2.8.1.2.3.4.5.6.2.1.5.2.9.2.3 0 .5 0 .8-.1.3 0 .5-.1.7-.3v1.9c-.3.1-.6.2-1 .3-.4.1-.7.1-.9.1-.8 0-1.4-.1-1.9-.3-.4-.2-.8-.5-1-.9-.2-.4-.3-.8-.4-1.2 0-.4-.1-.9-.1-1.4v-5.8h-2.4V283h2.4v-3h2.1v3.1h3v1.8z"/><g><path class="st0" d="M135.3 215.4h3.4l14.9 32.8h-4l-3.8-8.6h-17.7l-3.9 8.6h-3.8l14.9-32.8zm9.1 20.9l-7.4-16.6-7.5 16.6h14.9zM160.4 224.1h3.6v6.3c1.8-4 5.3-6.9 9.8-6.7v3.9h-.3c-5.3 0-9.5 3.8-9.5 11v9.6h-3.6v-24.1zM177.6 236.3c0-6.9 5.3-12.7 12.3-12.7 4.6 0 7.4 1.9 9.6 4.3l-2.4 2.5c-1.9-2-4.1-3.6-7.3-3.6-4.9 0-8.6 4.1-8.6 9.3v.1c0 5.2 3.8 9.4 8.9 9.4 3.1 0 5.5-1.5 7.4-3.6l2.3 2.1c-2.4 2.7-5.3 4.7-9.8 4.7-7 0-12.4-5.7-12.4-12.5zM206.7 214.2h3.6v14.1c1.6-2.6 4.1-4.7 8.2-4.7 5.8 0 9.2 3.9 9.2 9.6v15h-3.6v-14.1c0-4.5-2.4-7.3-6.7-7.3-4.1 0-7.2 3-7.2 7.5v13.8h-3.6v-33.9zM236.4 214.9h4.1v4h-4.1v-4zm.2 9.2h3.6v24.1h-3.6v-24.1zM247.1 224.1h4l8.1 20 8.2-20h3.9l-10.5 24.3h-3.2l-10.5-24.3zM287 245.7c3.3 0 5.6-1.4 7.6-3.4l2.2 2c-2.4 2.7-5.4 4.5-9.9 4.5-6.6 0-12-5.1-12-12.6 0-7 4.9-12.6 11.6-12.6 7.1 0 11.2 5.7 11.2 12.8v1.3h-19.1c.4 5 4.1 8 8.4 8zm7-10.9c-.4-4.4-2.9-8.1-7.7-8.1-4.1 0-7.3 3.4-7.8 8.1H294z"/></g><path fill="none" stroke="#fff" stroke-width="2.68" stroke-miterlimit="10" d="M42.5 263.4h254.9"/><path class="st0" d="M301 145.3c-.7-4.8-5.1-8.2-10-7.6-2 .3-3.7 1.2-5 2.5l-.1.1-.3.3c-1.2 1.2-5.4 5.2-12.2 6.7-.6.1-1 .2-1.3.4l-23.4 4.7c-6.6 1.1-13.5-1.9-14.5-2.3l-8.8-5h-.1l-1.7-1c-5.2-3.5-8.1-10.6-8.4-11.7l-2.4-9.3c-1.7-10.8 1.5-19.2 2.3-21.2l8.5-15.5c.2-.1.4-.4.7-1.1 1.8-3.4 5.8-6.7 8.7-8.9.4-.3 2.8-1.9 7.2-2.8l24.5-3.6c7.6-.9 15.4 1.5 17.9 2.3.2.1.5.2.7.2h.1c1.2.3 2.4.4 3.7.3 4.8-.7 8.2-5.1 7.6-10-.7-4.8-5.1-8.2-10-7.6-.4.1-.9.2-1.3.3-.1 0-.1 0-.2.1-.2.1-.4.1-.6.2-5.7 1.8-14.6.1-17.6-.6l-7.3-2.1c-4.3-1.7-9.2-6-11.1-7.9-.3-.3-.6-.6-.9-.8v-.1c-1.9-1.6-4.3-2.4-7-2.1-4.8.7-8.2 5.1-7.6 10 0 0 .1 8.2-3 12.7-1.7 2.1-4.6 5.4-11.5 6.5l-.6.1c-5 .6-10.4-1.1-13-2.1-.5-.3-1-.5-1.5-.6h-.1c-1.2-.4-2.4-.5-3.7-.3-4.8.7-8.2 5.1-7.6 10 .2 1.6.9 3.1 1.8 4.3.4.5.8.9 1.2 1.3 1.9 2 5.3 6.4 6.8 12.1.2.6.3 1.1.4 1.5l.4 1.4c1.3 6.3 1.4 14.6-.6 17.8-1.5 2.4-5.9 5.1-8.2 6.4-.5.2-.9.5-1.4.8-2.7 1.8-4.3 5.1-3.9 8.5.6 4.2 4 7.3 8 7.6h1.2c2.7.1 9.2.4 13.4 2.2.1.1 1.6 1 2.4 2.2.7 1.1 1.4 2.6 1.3 4.3-.2 3.6-.9 6.2-.9 6.3-.2.8-.5 1.5-.7 2.1-.2.4-.3.8-.5 1.2-.3 1.1-.4 2.4-.3 3.6.7 4.8 5.1 8.2 10 7.6 2.1-.3 3.8-1.2 5.2-2.6.3-.3.5-.5.7-.8 1.4-1.5 4.5-4.5 8.8-5.6.7-.1 5.7-.6 10.3 2.4 5 3.2 9 10.6 9 10.6 1.8 3 5.2 4.8 8.8 4.3 3.6-.5 6.4-3.1 7.3-6.4 0 0 2-6.3 7.1-10.7.1-.1.2-.2.3-.2l2-1.5c1.5-.8 6.2-3.2 11.8-3.7.4 0 .8 0 1.2-.1 5.2-.8 8.6-5.3 8-10.1zm-71.3 8.4l.1.1c1.7 1.2-.9 1.1-1.1 1.1-1.5-.2-2.9-.6-4-1.3-1.1-.7-2.1-1.9-2.8-3.3-.1-.1-.4-.9 1.2-.4l6.6 3.8zM208.5 135c-1.4 0-3.3-2.2-4.2-5.5-1.9-7.2.3-8.2 1.2-8.4.7-.1 1.6 2 2.3 4.5l.8 3.1c.6 3.1 1.1 6.3-.1 6.3zm60 19c2.6-.5 5.1-.9 6-1 2-.1 1.6 1.2.1 2.6-1.5 1.4-6.9 3.4-13.3 4.7-6.1 1.3-9.8-.3-9.9-1.5 0-.9 4.4-2.2 7.4-2.9l9.7-1.9zm-23-86.8c-4.4.6-9.2 1.4-9.9.8-.9-.6-.8-6 6.6-8.4 7.4-2.4 21.6.1 22 3 .2 1.3-6.4 2.7-11.8 3.6l-6.9 1zm-39.9 27.9c-.6-3.2-1.4-9.7.4-12.5l.1-.1c.1-.1.2-.3.3-.4 3.7-4.9 13.3-5.5 13.9-4.5.6 1-1.5 5.9-4.5 11.5-3 5.7-6.5 11.1-7.4 11-.7-.1-1.6-1.1-2.2-3.2l-.6-1.8zM170.6 167.6c-4.6-.4-7.8-2.9-9.2-4.2l-.4-.4-.4-.4-2.6-2.5c-.9-1.2-3.2-4.5-4.5-8.8-.2-.7-.5-2.2-.1-4 .3-1 .8-2.4 1.6-4.1.1-.2 6.1-10 14.7-11.7.3 0 .6-.1.9-.1 4-.9 7-4.4 7-8.6 0-2.3-.9-4.4-2.3-5.9 0 0-4.9-5.8-5.6-13.5-.6-7.7 4.4-15.1 4.4-15.1 1-1.3 1.5-2.9 1.5-4.7 0-4.7-3.6-8.5-8.2-8.8-2-.3-6.7-1.5-10.6-5.6l-1.4-1.8c-2.3-4-3.7-11.7-3.7-11.7 0-4.9-4-8.8-8.8-8.8-2.2 0-4.4.8-6.2 2.2 0 0-12.6 6.6-17.8 6.3-5.2-.3-12.5-11.5-12.5-11.5-1.4-3.1-4.5-5.2-8.1-5.2-4.3 0-7.9 3.1-8.7 7.1v.1c-.1.4-.1.8-.1 1.1-.4 3.2-1.2 5.9-2.1 7.9-3.1 4.5-6.2 5.3-7.2 5.5h-.1c-2.1.1-7.4-.1-13.2-2.9-.3-.2-.6-.3-.8-.4-1.1-.4-2.2-.7-3.4-.7-4.9 0-8.8 4-8.8 8.8 0 1.5.4 2.9 1 4.1.1.2.3.5.4.7.9 1.7 3.1 6.3 4 13.2.3 6.9-2.1 10.3-3.1 11.5-3.6 3.8-8.6 6-11.1 6.9-.5.1-1 .3-1.4.5-3.1 1.4-5.2 4.5-5.2 8 0 3.3 1.8 6.2 4.6 7.7.6.3 1.2.6 1.9.8 5.9 2.5 9.4 5.3 11.3 7.1 2.7 3.4 2.8 8.5 2.9 9.2-1 9.7-4.6 15.1-4.6 15.1-1 1.4-1.6 3.2-1.6 5.1 0 4.9 4 8.8 8.8 8.8 1.3 0 2.5-.3 3.7-.8 0 0 .1 0 .2-.1l.6-.3c1.8-.9 6.4-3.2 11.2-4.8.2-.1 2-.5 3.4 0s2.6 2.7 2.7 3c1.1 2.2 2.1 5.1 2.6 8.6 0 4.9 4 8.8 8.8 8.8 2.9 0 5.5-1.4 7.1-3.6v-.1c.4-.5.7-1.1 1-1.7 2.3-3.6 5.2-5.5 6.9-6.4l17.5-6.8c2.2-.7 5.5-1.5 8.4-1.6.8 0 1.5.1 2.2.1.4.1.7.1 1 .1 2 .2 3.4.6 3.4.6.2 0 .4.1.6.1 0 0 6 .8 11.4 5.3l2.1 2.1c3.2 2.8 5 9.6 5.5 11.8 0 .2.1.4.1.5v.2c1 3.7 4.4 6.5 8.5 6.5 4.9 0 8.8-4 8.8-8.8s-4-9-8.9-9zm-62-6.6c-5 1.3-8.9.6-10.6.1l-.9-.3s-1.9-.7-4.3-1.9c-.1-.1-1.9-1.2-1.9-2 0-.9 3.9-1.1 3.9-1.1l24.2-1.4c1.7 0 2.7.5 2.7.9 0 .3-1.8 1.2-2.4 1.5l-10.7 4.2zM69.7 70.3c1.4-1.4 3.2-2.4 5.1-3.1.3-.1 2.5-.8 2.8-.1.3.7-.3 1.5-.3 1.5l-9.5 11.7.1-.1s-.8 1.3-1.5.8-.4-3.2-.4-3.2c.5-2.1 1.3-4.5 2.9-6.4.2-.4.5-.7.8-1.1zm62.5 64.2zm-30.5-77c-.7.1-1.4.1-2 .2-3.8.3-6.3 1.2-5.8-.4.4-1.2 3.7-1.1 5.5-1.3 1.8-.3 4.8-1 6.5.2.7.5.4.8-.4 1l-3.8.3zm29.2 3.4c.8-1 4.8.9 7.3 2.2.2.1.3.2.5.3 0 0 .1 0 .1.1 2.4 1.2 10.7 5.8 11.6 7.6.7 1.4-3.6-.1-7.3-1.8l-8.6-4.7c-2.3-1.7-4.1-3.1-3.6-3.7zm28.8 49.9c1.1-3 2.2-5.6 2.9-5.7 1.4-.1-1.6 10.4-2.3 14-.7 3.5-3.3 13.1-6 14-.9.3 2.4-11.9 3-14.4.1-.2.1-.5.2-.9l2.2-7zm-84.1 39.8c-.1.3-3.1.1-3.2 0-1.8-.4-3.5-1-4.7-2.1-1.8-1.6-2.6-5.9-2.9-10 0-.1 0-1.2.3-1.2s1.1.7 1.1.7l8.5 10.7s1.1 1.5.9 1.9zm-18.7-44.4c.5-1.2 1.7-3 2-3.1.4-.1.4 1.8.4 1.8l-.1 12v.7c0 .6-.1 1.5-.4 1.5-.2 0-.3-.2-.5-.4-.2-.5-.4-1-.7-1.5-.9-2.2-1.7-4.8-1.7-7.3.2-1 .5-2.3 1-3.7zm33.7 44.3c-2.1-.1-7.1-.7-10.7-4.2L71 135.2c-.1-.2-.3-.4-.5-.6l-.9-1.2c-3.5-4.9-4.5-12.5-4.8-15.4l.2-16.5c.4-7.9 3.9-13.5 5-15.1l11.6-14.2c1-1.2 6-6.8 12.1-8.1l11.9-1.4c.9-.1 6.3-.5 11.4 0 2.3.4 4.9 1.2 7.1 2.4l.6.3 20.5 11.3c2.5 1.7 10.2 7 11.6 10.9 1.5 4.1.7 11.2.4 12.8l-10.7 33.4c-1.1 2.9-2.6 6-4.2 6.3-3 .7-10.3-5.9-10.4-5.9-1.1-1.1-4.4-5-4.9-10.6-.5-4.4-4.3-7.7-8.8-7.7-4.9 0-8.8 4-8.8 8.8 0 4 2.7 7.4 6.3 8.5h.1c.3.1.6.2.9.2 2.3.6 8 2.1 11.3 4.9l2.2 2.2c1.1 1.3 1.9 2.6 2.6 3.7.6 1.1.6 1.9.1 2.9-.5 1.1-3.4 1.3-3.4 1.3h.1l-39 2.1z"/></svg>