<svg xmlns="http://www.w3.org/2000/svg" xmlns:xlink="http://www.w3.org/1999/xlink" viewBox="0 0 522.24 522.83"><defs><style>.a{isolation:isolate;}.b{fill:none;}.c{fill:url(#a);}.d{fill:url(#b);}.e{fill:url(#c);}.f{fill:url(#d);}.g{fill:url(#e);}.h{fill:url(#f);}.i{fill:url(#g);}.j{fill:url(#h);}.k{fill:url(#i);}.l{fill:url(#j);}.m{fill:url(#k);}.n{fill:url(#l);}.o{fill:url(#m);}.p{fill:url(#n);}.q{fill:url(#o);}.r{fill:url(#p);}.s{fill:url(#q);}.t{fill:url(#r);}.u{fill:url(#s);}.v{fill:url(#t);}.w{fill:url(#u);}.x{fill:url(#v);}.y{fill:url(#w);}.z{fill:url(#x);}.aa{fill:url(#y);}.ab{fill:url(#z);}.ac{fill:url(#aa);}.ad{fill:url(#ab);}.ae{fill:url(#ac);}.af{fill:url(#ad);}.ag{fill:url(#ae);}.ah{fill:url(#af);}.ai{fill:url(#ag);}.aj{fill:url(#ah);}.ak{fill:url(#ai);}.al{fill:url(#aj);}.am{fill:url(#ak);}.an{fill:url(#al);}.ao{fill:url(#am);}.ap{fill:url(#an);}.aq{fill:url(#ao);}.ar{fill:url(#ap);}.as{fill:url(#aq);}.at{fill:url(#ar);}.au{fill:url(#as);}.av{fill:url(#at);}.aw{fill:url(#au);}.ax{fill:url(#av);}.ay{fill:url(#aw);}.az{fill:url(#ax);}.ba{fill:url(#ay);}.bb{fill:url(#az);}.bc{fill:url(#ba);}.bd{fill:url(#bb);}.be{fill:#e1c982;}.bf{fill:url(#bc);}.bg{fill:url(#bd);}.bh{fill:url(#be);}.bi{fill:url(#bf);}.bj{fill:url(#bg);}.bk{fill:url(#bh);}.bl{fill:url(#bi);}.bm{fill:url(#bj);}.bn{fill:url(#bk);}.bo{fill:url(#bl);}.bp{fill:url(#bm);}.bq{fill:url(#bn);}.br{fill:url(#bo);}.bs{fill:url(#bp);}.bt{fill:url(#bq);}.bu{fill:url(#br);}.bv{fill:url(#bs);}.bw{fill:url(#bt);}.bx{fill:url(#bu);}.by{fill:url(#bv);}.bz{fill:url(#bw);}.ca{fill:url(#bx);}.cb{fill:url(#by);}.cc{fill:url(#bz);}.cd{fill:url(#ca);}.ce{fill:url(#cb);}.cf{fill:url(#cc);}.cg{fill:url(#cd);}.ch{fill:url(#ce);}.ci{fill:url(#cf);}.cj{fill:url(#cg);}.ck{fill:url(#ch);}.cl{fill:url(#ci);}.cm{fill:url(#cj);}.cn{fill:url(#ck);}.co{fill:url(#cl);}.cp{fill:url(#cm);}.cq{fill:url(#cn);}.cr{fill:url(#co);}.cs{fill:url(#cp);}.ct{fill:url(#cq);}.cu{fill:url(#cr);}.cv{fill:url(#cs);}.cw{fill:url(#ct);}.cx{fill:url(#cu);}.cy{fill:url(#cv);}.cz{fill:url(#cw);}.da{fill:url(#cx);}.db{fill:url(#cy);}.dc{fill:url(#cz);}.dd{fill:url(#da);}.de{fill:url(#db);}.df{fill:url(#dc);}.dg{fill:url(#dd);}.dh{fill:url(#de);}.di{fill:url(#df);}.dj{fill:url(#dg);}.dk{fill:url(#dh);}.dl{fill:url(#di);}.dm{fill:url(#dj);}.dn{fill:url(#dk);}.do{fill:url(#dl);}.dp{fill:url(#dm);}.dq{fill:url(#dn);}.dr{fill:url(#do);}.ds{fill:url(#dp);}.dt{fill:url(#dq);}.du{fill:url(#dr);}.dv{fill:url(#ds);}.dw{fill:url(#dt);}.dx{fill:url(#du);}.dy{fill:url(#dv);}.dz{fill:url(#dw);}.ea{fill:url(#dx);}.eb{fill:url(#dy);}.ec{fill:url(#dz);}.ed,.ep{fill:#fff;}.ed{stroke:#c4a006;stroke-width:0.95px;}.ee{fill:url(#ea);}.ef,.eg,.eh,.ei,.ej,.ek,.el,.em,.en,.eo{stroke:#dbe0ee;stroke-width:0.15px;}.ef{fill:url(#eb);}.eg{fill:url(#ec);}.eh{fill:url(#ed);}.ei{fill:url(#ee);}.ej{fill:url(#ef);}.ek{fill:url(#eg);}.el{fill:url(#eh);}.em{fill:#90a6ce;}.en{fill:#99add2;}.eo{fill:#bcc8e1;}.ep{stroke:#005699;stroke-width:2px;}.eq{fill:#c4a006;}.er{opacity:0.27;mix-blend-mode:color-burn;fill:url(#ei);}</style><radialGradient id="a" cx="134.13" cy="73.12" r="523.52" gradientUnits="userSpaceOnUse"><stop offset="0" stop-color="#e7d298"/><stop offset="1" stop-color="#c4a006"/></radialGradient><radialGradient id="b" cx="134.13" cy="73.14" r="523.48" xlink:href="#a"/><radialGradient id="c" cx="134.14" cy="73.12" r="523.52" xlink:href="#a"/><radialGradient id="d" cx="134.13" cy="73.14" r="523.48" xlink:href="#a"/><radialGradient id="e" cx="134.13" cy="73.14" r="523.46" xlink:href="#a"/><radialGradient id="f" cx="134.13" cy="73.14" r="523.48" xlink:href="#a"/><radialGradient id="g" cx="134.13" cy="73.14" r="523.46" xlink:href="#a"/><radialGradient id="h" cx="134.13" cy="73.14" r="523.48" xlink:href="#a"/><radialGradient id="i" cx="134.13" cy="73.14" r="523.46" xlink:href="#a"/><radialGradient id="j" cx="134.13" cy="73.14" r="523.48" xlink:href="#a"/><radialGradient id="k" cx="134.15" cy="73.12" r="523.49" xlink:href="#a"/><radialGradient id="l" cx="134.13" cy="73.14" r="523.48" xlink:href="#a"/><radialGradient id="m" cx="134.14" cy="73.12" r="523.49" xlink:href="#a"/><radialGradient id="n" cx="134.13" cy="73.12" r="523.5" xlink:href="#a"/><radialGradient id="o" cx="134.15" cy="73.12" r="523.49" xlink:href="#a"/><radialGradient id="p" cx="134.13" cy="73.12" r="523.49" xlink:href="#a"/><radialGradient id="q" cx="134.13" cy="73.11" r="523.5" xlink:href="#a"/><radialGradient id="r" cx="134.14" cy="73.12" r="523.5" xlink:href="#a"/><radialGradient id="s" cx="134.13" cy="73.11" r="523.5" xlink:href="#a"/><radialGradient id="t" cx="134.15" cy="73.14" r="523.46" xlink:href="#a"/><radialGradient id="u" cx="134.13" cy="73.11" r="523.5" xlink:href="#a"/><radialGradient id="v" cx="134.15" cy="73.14" r="523.46" xlink:href="#a"/><radialGradient id="w" cx="134.11" cy="73.13" r="523.5" xlink:href="#a"/><radialGradient id="x" cx="134.15" cy="73.14" r="523.46" xlink:href="#a"/><radialGradient id="y" cx="134.11" cy="73.13" r="523.5" xlink:href="#a"/><radialGradient id="z" cx="134.13" cy="73.14" r="523.48" gradientUnits="userSpaceOnUse"><stop offset="0" stop-color="#efe0ba"/><stop offset="1" stop-color="#c4a006"/></radialGradient><radialGradient id="aa" cx="134.13" cy="73.13" r="523.5" xlink:href="#z"/><radialGradient id="ab" cx="134.13" cy="73.14" r="523.48" xlink:href="#a"/><radialGradient id="ac" cx="134.13" cy="73.14" r="523.48" xlink:href="#z"/><radialGradient id="ad" cx="134.13" cy="73.15" r="523.46" xlink:href="#a"/><radialGradient id="ae" cx="134.13" cy="73.14" r="523.48" xlink:href="#z"/><radialGradient id="af" cx="134.13" cy="73.14" r="523.46" xlink:href="#a"/><radialGradient id="ag" cx="134.13" cy="73.14" r="523.48" xlink:href="#z"/><radialGradient id="ah" cx="134.13" cy="73.13" r="523.49" xlink:href="#a"/><radialGradient id="ai" cx="134.13" cy="73.13" r="523.49" xlink:href="#z"/><radialGradient id="aj" cx="134.13" cy="73.13" r="523.48" xlink:href="#a"/><radialGradient id="ak" cx="134.13" cy="73.13" r="523.48" xlink:href="#z"/><radialGradient id="al" cx="134.14" cy="73.2" r="523.37" xlink:href="#a"/><radialGradient id="am" cx="134.14" cy="73.19" r="523.39" xlink:href="#a"/><radialGradient id="an" cx="134.15" cy="73.19" r="523.39" xlink:href="#z"/><radialGradient id="ao" cx="134.15" cy="73.12" r="523.49" xlink:href="#a"/><radialGradient id="ap" cx="134.14" cy="73.13" r="523.48" xlink:href="#z"/><radialGradient id="aq" cx="134.15" cy="73.06" r="523.56" xlink:href="#a"/><radialGradient id="ar" cx="134.13" cy="73.08" r="523.55" xlink:href="#z"/><radialGradient id="as" cx="134.14" cy="73.12" r="523.5" xlink:href="#a"/><radialGradient id="at" cx="134.14" cy="73.14" r="523.48" xlink:href="#z"/><radialGradient id="au" cx="134.13" cy="73.11" r="523.5" xlink:href="#a"/><radialGradient id="av" cx="134.13" cy="73.13" r="523.48" xlink:href="#z"/><radialGradient id="aw" cx="134.13" cy="73.11" r="523.5" xlink:href="#a"/><radialGradient id="ax" cx="134.13" cy="73.14" r="523.48" xlink:href="#z"/><radialGradient id="ay" cx="134.13" cy="73.11" r="523.5" xlink:href="#a"/><radialGradient id="az" cx="134.13" cy="73.14" r="523.48" xlink:href="#z"/><radialGradient id="ba" cx="134.15" cy="73.15" r="523.46" xlink:href="#a"/><radialGradient id="bb" cx="134.14" cy="73.14" r="523.48" xlink:href="#z"/><radialGradient id="bc" cx="134.13" cy="73.14" r="523.49" xlink:href="#a"/><radialGradient id="bd" cx="134.13" cy="73.13" r="523.49" xlink:href="#a"/><radialGradient id="be" cx="134.14" cy="73.13" r="523.5" xlink:href="#a"/><radialGradient id="bf" cx="134.13" cy="73.14" r="523.48" xlink:href="#a"/><radialGradient id="bg" cx="134.15" cy="73.15" r="523.46" xlink:href="#a"/><radialGradient id="bh" cx="134.11" cy="73.13" r="523.5" xlink:href="#a"/><radialGradient id="bi" cx="134.14" cy="73.13" r="523.47" xlink:href="#a"/><radialGradient id="bj" cx="134.14" cy="73.13" r="523.48" xlink:href="#a"/><radialGradient id="bk" cx="134.1" cy="73.1" r="523.57" xlink:href="#a"/><radialGradient id="bl" cx="134.09" cy="73.1" r="523.59" xlink:href="#a"/><radialGradient id="bm" cx="134.13" cy="73.13" r="523.48" xlink:href="#a"/><radialGradient id="bn" cx="134.13" cy="73.13" r="523.5" xlink:href="#a"/><radialGradient id="bo" cx="134.14" cy="73.14" r="523.47" xlink:href="#z"/><radialGradient id="bp" cx="134.14" cy="73.15" r="523.41" xlink:href="#z"/><radialGradient id="bq" cx="134.14" cy="73.14" r="523.47" xlink:href="#z"/><radialGradient id="br" cx="134.13" cy="73.15" r="523.47" xlink:href="#z"/><radialGradient id="bs" cx="134.13" cy="73.14" r="523.48" xlink:href="#z"/><radialGradient id="bt" cx="134.13" cy="73.14" r="523.48" xlink:href="#a"/><radialGradient id="bu" cx="134.13" cy="73.14" r="523.48" xlink:href="#z"/><radialGradient id="bv" cx="134.13" cy="73.13" r="523.49" xlink:href="#a"/><radialGradient id="bw" cx="134.13" cy="73.13" r="523.48" xlink:href="#z"/><radialGradient id="bx" cx="134.13" cy="73.13" r="523.49" xlink:href="#a"/><radialGradient id="by" cx="134.13" cy="73.14" r="523.48" xlink:href="#z"/><radialGradient id="bz" cx="134.13" cy="73.13" r="523.49" xlink:href="#a"/><radialGradient id="ca" cx="134.13" cy="73.14" r="523.48" xlink:href="#z"/><radialGradient id="cb" cx="134.14" cy="73.13" r="523.5" xlink:href="#a"/><radialGradient id="cc" cx="134.13" cy="73.14" r="523.48" xlink:href="#z"/><radialGradient id="cd" cx="134.14" cy="73.13" r="523.49" xlink:href="#a"/><radialGradient id="ce" cx="134.13" cy="73.14" r="523.48" xlink:href="#z"/><radialGradient id="cf" cx="134.13" cy="73.13" r="523.49" xlink:href="#a"/><radialGradient id="cg" cx="134.14" cy="73.13" r="523.5" xlink:href="#a"/><radialGradient id="ch" cx="134.13" cy="73.14" r="523.48" xlink:href="#z"/><radialGradient id="ci" cx="134.13" cy="73.12" r="523.52" xlink:href="#a"/><radialGradient id="cj" cx="134.13" cy="73.14" r="523.48" xlink:href="#z"/><radialGradient id="ck" cx="134.13" cy="73.11" r="523.53" xlink:href="#a"/><radialGradient id="cl" cx="134.13" cy="73.13" r="523.49" xlink:href="#z"/><radialGradient id="cm" cx="134.13" cy="73.14" r="523.48" xlink:href="#a"/><radialGradient id="cn" cx="134.13" cy="73.14" r="523.48" xlink:href="#z"/><radialGradient id="co" cx="134.14" cy="73.1" r="523.56" xlink:href="#a"/><radialGradient id="cp" cx="134.14" cy="73.12" r="523.52" xlink:href="#a"/><radialGradient id="cq" cx="134.14" cy="73.12" r="523.52" xlink:href="#z"/><radialGradient id="cr" cx="134.15" cy="73.14" r="523.46" xlink:href="#a"/><radialGradient id="cs" cx="134.14" cy="73.13" r="523.48" xlink:href="#z"/><radialGradient id="ct" cx="134.11" cy="73.13" r="523.51" xlink:href="#a"/><radialGradient id="cu" cx="134.13" cy="73.14" r="523.48" xlink:href="#z"/><radialGradient id="cv" cx="134.11" cy="73.13" r="523.51" xlink:href="#a"/><radialGradient id="cw" cx="134.13" cy="73.13" r="523.49" xlink:href="#z"/><radialGradient id="cx" cx="134.14" cy="73.13" r="523.47" xlink:href="#a"/><radialGradient id="cy" cx="134.13" cy="73.14" r="523.48" xlink:href="#z"/><radialGradient id="cz" cx="134.15" cy="73.12" r="523.46" xlink:href="#a"/><radialGradient id="da" cx="134.14" cy="73.14" r="523.47" xlink:href="#z"/><radialGradient id="db" cx="134.06" cy="73.15" r="523.61" xlink:href="#a"/><radialGradient id="dc" cx="134.06" cy="73.16" r="523.61" xlink:href="#z"/><radialGradient id="dd" cx="134.14" cy="73.13" r="523.48" xlink:href="#a"/><radialGradient id="de" cx="134.13" cy="73.14" r="523.48" xlink:href="#z"/><radialGradient id="df" cx="134.14" cy="73.13" r="523.48" xlink:href="#a"/><radialGradient id="dg" cx="134.14" cy="73.14" r="523.48" xlink:href="#z"/><radialGradient id="dh" cx="134.13" cy="73.11" r="523.49" xlink:href="#a"/><radialGradient id="di" cx="134.12" cy="73.12" r="523.51" xlink:href="#a"/><radialGradient id="dj" cx="134.12" cy="73.12" r="523.51" xlink:href="#z"/><radialGradient id="dk" cx="134.13" cy="73.13" r="523.5" xlink:href="#a"/><radialGradient id="dl" cx="134.14" cy="73.14" r="523.48" xlink:href="#z"/><radialGradient id="dm" cx="134.13" cy="73.13" r="523.49" xlink:href="#a"/><radialGradient id="dn" cx="134.14" cy="73.13" r="523.47" xlink:href="#z"/><radialGradient id="do" cx="134.13" cy="73.13" r="523.5" xlink:href="#a"/><radialGradient id="dp" cx="134.14" cy="73.13" r="523.48" xlink:href="#z"/><radialGradient id="dq" cx="134.13" cy="73.12" r="523.51" xlink:href="#a"/><radialGradient id="dr" cx="134.12" cy="73.13" r="523.53" xlink:href="#a"/><radialGradient id="ds" cx="134.12" cy="73.13" r="523.51" xlink:href="#z"/><radialGradient id="dt" cx="134.13" cy="73.13" r="523.51" xlink:href="#a"/><radialGradient id="du" cx="134.13" cy="73.14" r="523.48" xlink:href="#z"/><radialGradient id="dv" cx="134.13" cy="73.13" r="523.51" xlink:href="#a"/><radialGradient id="dw" cx="134.13" cy="73.14" r="523.48" xlink:href="#z"/><radialGradient id="dx" cx="134.15" cy="73.14" r="523.41" xlink:href="#a"/><radialGradient id="dy" cx="134.15" cy="73.14" r="523.43" xlink:href="#a"/><radialGradient id="dz" cx="134.16" cy="73.14" r="523.41" xlink:href="#z"/><radialGradient id="ea" cx="215.98" cy="223.07" r="252.48" gradientUnits="userSpaceOnUse"><stop offset="0" stop-color="#0fb3e8"/><stop offset="0.52" stop-color="#0781bd"/><stop offset="1" stop-color="#005699"/></radialGradient><radialGradient id="eb" cx="222.05" cy="222.01" r="280.11" gradientUnits="userSpaceOnUse"><stop offset="0" stop-color="#cdd5e9"/><stop offset="0.08" stop-color="#c4cee5"/><stop offset="0.49" stop-color="#9aaed2"/><stop offset="0.81" stop-color="#809ac6"/><stop offset="1" stop-color="#7693c2"/></radialGradient><radialGradient id="ec" cx="222.05" cy="222" r="280.11" xlink:href="#eb"/><radialGradient id="ed" cx="222.05" cy="222.01" r="280.1" xlink:href="#eb"/><radialGradient id="ee" cx="222.05" cy="222.01" r="280.11" xlink:href="#eb"/><radialGradient id="ef" cx="222.06" cy="222.01" r="280.1" xlink:href="#eb"/><radialGradient id="eg" cx="222.05" cy="226.99" r="277.67" xlink:href="#eb"/><radialGradient id="eh" cx="222.05" cy="222.01" r="280.11" xlink:href="#eb"/><radialGradient id="ei" cx="261.12" cy="261.41" fx="221.42238131568752" fy="158.73744631006866" r="179.7" gradientUnits="userSpaceOnUse"><stop offset="0" stop-color="#0fb3e8"/><stop offset="0.24" stop-color="#148eb6"/><stop offset="0.76" stop-color="#1f3f4b"/><stop offset="1" stop-color="#231f20"/></radialGradient></defs><title>NSFLogo</title><g class="a"><path class="b" d="M375.7,457.73c1.76,5.46,3.12,12.49,8.76,14.91l3.46.94c7-1.83,13.17-5.75,18.95-9.5,5.85-4.74,13.38-10.94,15.15-17.89.19-5.16-3.86-8.55-7.61-11.61a200.07,200.07,0,0,0-42.47-22.83l-.7.48C370.26,427.54,373.39,442.47,375.7,457.73Z" transform="translate(-26.88 -26.59)"/><path class="b" d="M470,345.71c5.1,2.62,11,6.63,16.72,4.37l3.12-1.8c3.1-5.29,4.71-11.2,6-17,.07-.48.14-1,.19-1.44.79-7.68,2.19-18.48-1.77-25.13-3.5-3.78-8.77-3.32-13.6-2.83q-2.76.48-5.5,1a285.63,285.63,0,0,1-30.75,23.36C452.38,333.3,461.26,339.31,470,345.71Z" transform="translate(-26.88 -26.59)"/><path class="b" d="M433.66,411.58c3.72,4.37,7.67,10.35,13.79,10.42l3.56-.45c5.4-4.09,9.4-9.57,13.09-14.89.11-.21.24-.41.36-.62,3.67-6.8,9.09-16.24,8-23.9-1.79-4.83-6.84-6.42-11.48-7.82a199.64,199.64,0,0,0-47.6-4.82l-1.21,1.85C417.11,385.83,425.69,398.4,433.66,411.58Z" transform="translate(-26.88 -26.59)"/><path class="b" d="M139.76,331.49c-4.43,4.18-8.42,9.12-12.72,13.94-1.38,4.66-9.54,9.07-4.16,14a144.72,144.72,0,0,0,34.76,1.83,148.78,148.78,0,0,1-11.54-26C144,334,141.85,332.78,139.76,331.49Z" transform="translate(-26.88 -26.59)"/><path class="b" d="M380.35,405.6c6.8,4,14.86,6.27,22.91,9.1,4.86-.51,12,5.34,14.57-1.52A145.73,145.73,0,0,0,406,379.87,150,150,0,0,1,380.35,405.6Z" transform="translate(-26.88 -26.59)"/><path class="b" d="M270.67,436.52c2,7.62,6.05,14.84,9.73,22.47,3.78,3.07,4.73,12.29,11.37,9.22a145.23,145.23,0,0,0,15.15-31.87,150.13,150.13,0,0,1-36.25.18Z" transform="translate(-26.88 -26.59)"/><path class="b" d="M170.62,380.64c-3.9,6.72-6.11,14.61-8.88,22.52.51,4.85-5.33,12,1.53,14.56A145.44,145.44,0,0,0,196.21,406,150.38,150.38,0,0,1,170.62,380.64Z" transform="translate(-26.88 -26.59)"/><path class="b" d="M229.56,469.7c-2.62,5.1-6.62,11-4.35,16.72l1.78,3.11c6.69,3.93,14.36,5.46,21.49,7,7.44.77,16.88,1.59,22.91-2,3.79-3.5,3.31-8.77,2.84-13.6A200.18,200.18,0,0,0,260.42,435l-2.09-.4C246.94,444.67,238.65,457.35,229.56,469.7Z" transform="translate(-26.88 -26.59)"/><path class="b" d="M98,302.8c-5.71-.47-12.72-1.9-17.11,2.37L78.69,308c-1.15,8.36.75,16.72,2.12,24.43,2.07,6.73,4.88,14.46,10,18.26,4.69,2.15,9.37-.29,13.65-2.58a204,204,0,0,0,27.92-21.33,286.44,286.44,0,0,1-30.63-23.09Z" transform="translate(-26.88 -26.59)"/><path class="b" d="M118.28,374.71c-5.45,1.75-12.48,3.11-14.9,8.74l-.93,3.46c2,7.79,6.63,14.51,10.71,20.84,4.63,5.69,10.53,12.49,17.1,14.16,5.15.2,8.54-3.85,11.61-7.6a200,200,0,0,0,22.62-42c-.48-.7-1-1.41-1.42-2.12C148,369.34,133.31,372.42,118.28,374.71Z" transform="translate(-26.88 -26.59)"/><path class="b" d="M153.79,339.52a143.78,143.78,0,0,0,268.41,0,285.08,285.08,0,0,1-268.41,0Z" transform="translate(-26.88 -26.59)"/><path class="b" d="M304.11,478.29c-.48,5.71-1.91,12.73,2.37,17.11l2.83,2.2c7.27,1,14.53-.3,21.37-1.57,7.25-2.14,16.69-5,21-10.79,2.17-4.67-.3-9.37-2.58-13.64a200.79,200.79,0,0,0-30.41-37.24l-1.39.28C310.6,448.38,307.78,463.34,304.11,478.29Z" transform="translate(-26.88 -26.59)"/><path class="b" d="M164.86,433.56c-4.37,3.7-10.34,7.66-10.42,13.79l.45,3.55c4.93,6.5,11.87,11,18.12,15.32,6.26,3.33,13.79,6.88,20.12,5.95,4.84-1.78,6.42-6.82,7.82-11.47a199.29,199.29,0,0,0,4.82-47.8l-1.08-.72C190.38,417.17,177.92,425.67,164.86,433.56Z" transform="translate(-26.88 -26.59)"/><path class="b" d="M418.72,360.63c7.74,1.07,15.94.07,24.35-.41,4.29-2.31,13.16.34,12.86-7a147,147,0,0,0-19.12-22.1c-2.29,1.4-4.59,2.79-6.92,4.13A148.22,148.22,0,0,1,418.72,360.63Z" transform="translate(-26.88 -26.59)"/><path class="b" d="M215,442.8c2.33,4.29-.32,13.16,7,12.87a145.21,145.21,0,0,0,26.09-23.53,148.88,148.88,0,0,1-33.46-13.81C213.56,426.1,214.57,434.35,215,442.8Z" transform="translate(-26.88 -26.59)"/><path class="b" d="M346.43,449c4.68,1.4,9.08,9.55,14,4.17a144.9,144.9,0,0,0,1.81-35.33,148.53,148.53,0,0,1-33.46,14.08C333.54,438.19,340.09,443.32,346.43,449Z" transform="translate(-26.88 -26.59)"/><path class="c" d="M78.22,322.91c.37,1.75.78,3.5,1.32,5.25.39,1.34.82,2.79,1.27,4.28-1.37-7.71-3.27-16.07-2.12-24.43l2.2-2.84c4.39-4.27,11.4-2.84,17.11-2.37l3.71.9a287,287,0,0,1-37.52-39.31c-.14.32-.28.64-.41,1C55,278.62,41.41,281.93,26.94,281.46c-.06,4.26-.06,9.38-.06,12.92,16.22-.95,33,4.62,40.41,21.23q2.25,5.89,4.19,11.92c-.14-1.28-.3-2.56-.48-3.83Z" transform="translate(-26.88 -26.59)"/><path class="d" d="M108,401.05c1,1.45,2.06,2.92,3.21,4.34l1.92,2.36c-4.08-6.33-8.68-13.05-10.71-20.84l.93-3.46c2.42-5.63,9.45-7,14.9-8.74,15-2.29,29.73-5.37,44.79-4.53q-2.87-4.33-5.43-8.9a144.72,144.72,0,0,1-34.76-1.83c-5.38-4.95,2.78-9.36,4.16-14,4.3-4.82,8.29-9.76,12.72-13.94-2.51-1.53-5-3.1-7.42-4.7a204,204,0,0,1-27.92,21.33c-4.28,2.29-9,4.73-13.65,2.58-5.08-3.8-7.89-11.53-10-18.26.16.9.32,1.8.46,2.68l-7,2.06c-.82-3.26-1.76-6.47-2.78-9.65a191.19,191.19,0,0,1,.85,25.66c-3,15.63-14.31,23.9-27.87,29,1.58,4,3.53,8.69,4.89,11.95,14.63-7.08,32.22-8.34,45.45,4.15q4.68,4.93,9,10.14c-.71-1.31-1.44-2.62-2.2-3.91Z" transform="translate(-26.88 -26.59)"/><path class="e" d="M81.27,335.12c-.14-.88-.3-1.78-.46-2.68-.45-1.49-.88-2.94-1.27-4.28-.54-1.75-1-3.5-1.32-5.25L71,323.7c.18,1.27.34,2.55.48,3.83,1,3.18,2,6.39,2.78,9.65Z" transform="translate(-26.88 -26.59)"/><path class="f" d="M81.27,335.12c-.14-.88-.3-1.78-.46-2.68-.45-1.49-.88-2.94-1.27-4.28-.54-1.75-1-3.5-1.32-5.25L71,323.7c.18,1.27.34,2.55.48,3.83,1,3.18,2,6.39,2.78,9.65Z" transform="translate(-26.88 -26.59)"/><path class="g" d="M164.6,461.41c1.51,1,3,1.92,4.65,2.78,1.18.64,2.44,1.33,3.76,2-6.25-4.34-13.19-8.82-18.12-15.32l-.45-3.55c.08-6.13,6.05-10.09,10.42-13.79,13.06-7.89,25.52-16.39,39.83-21.38q-4.35-2.93-8.48-6.14a145.44,145.44,0,0,1-32.94,11.68c-6.86-2.52-1-9.71-1.53-14.56,2.77-7.91,5-15.8,8.88-22.52q-3.21-4.06-6.13-8.34a200,200,0,0,1-22.62,42c-3.07,3.75-6.46,7.8-11.61,7.6-6.57-1.67-12.47-8.47-17.1-14.16.7,1.09,1.39,2.16,2,3.23l-5.69,4.57c-1.81-2.44-3.72-4.8-5.66-7.12a195.37,195.37,0,0,1,10.33,22.85c3.19,15.59-4.09,27.54-14.66,37.44,3,3,6.59,6.67,9.09,9.17,10.8-12.13,26.58-20,43.58-13.55,3.79,1.69,7.54,3.47,11.24,5.37-1.11-.89-2.24-1.78-3.38-2.63Z" transform="translate(-26.88 -26.59)"/><path class="h" d="M115.2,411c-.65-1.07-1.34-2.14-2-3.23l-1.92-2.36c-1.15-1.42-2.21-2.89-3.21-4.34l-6.38,3.47c.76,1.29,1.49,2.6,2.2,3.91,1.94,2.32,3.85,4.68,5.66,7.12Z" transform="translate(-26.88 -26.59)"/><path class="i" d="M115.2,411c-.65-1.07-1.34-2.14-2-3.23l-1.92-2.36c-1.15-1.42-2.21-2.89-3.21-4.34l-6.38,3.47c.76,1.29,1.49,2.6,2.2,3.91,1.94,2.32,3.85,4.68,5.66,7.12Z" transform="translate(-26.88 -26.59)"/><path class="j" d="M240.93,495.48c1.75.33,3.52.62,5.34.81l2.21.23c-7.13-1.53-14.8-3.06-21.49-7l-1.78-3.11c-2.27-5.69,1.73-11.62,4.35-16.72,9.09-12.35,17.38-25,28.77-35.12q-5.17-1-10.21-2.44A145.21,145.21,0,0,1,222,455.67c-7.31.29-4.66-8.58-7-12.87-.47-8.45-1.48-16.7-.38-24.47q-4.54-2.56-8.89-5.43A199.29,199.29,0,0,1,201,460.7c-1.4,4.65-3,9.69-7.82,11.47-6.33.93-13.86-2.62-20.12-5.95,1,.68,1.94,1.36,2.87,2l-3.49,6.4c-2.94-1.76-5.94-3.39-9-5A194.58,194.58,0,0,1,181.85,487c8.92,13.17,6.78,27,.8,40.2,3.91,1.7,8.64,3.64,11.91,5,5.33-15.36,16.88-28.7,35.07-29.22,4.65.13,9.3.37,13.94.79-1.55-.46-3.11-.91-4.69-1.31Z" transform="translate(-26.88 -26.59)"/><path class="k" d="M175.88,468.26c-.93-.68-1.89-1.36-2.87-2-1.32-.7-2.58-1.39-3.76-2-1.62-.86-3.14-1.81-4.65-2.78l-4.55,5.67c1.14.85,2.27,1.74,3.38,2.63,3,1.56,6,3.19,9,5Z" transform="translate(-26.88 -26.59)"/><path class="l" d="M175.88,468.26c-.93-.68-1.89-1.36-2.87-2-1.32-.7-2.58-1.39-3.76-2-1.62-.86-3.14-1.81-4.65-2.78l-4.55,5.67c1.14.85,2.27,1.74,3.38,2.63,3,1.56,6,3.19,9,5Z" transform="translate(-26.88 -26.59)"/><path class="m" d="M323.92,497.8c1.74-.37,3.5-.79,5.25-1.32l1.51-.45c-6.84,1.27-14.1,2.57-21.37,1.57l-2.83-2.2c-4.28-4.38-2.85-11.4-2.37-17.11,3.67-15,6.49-29.91,13.21-43.65q-5.15,1-10.4,1.7a145.23,145.23,0,0,1-15.15,31.87c-6.64,3.07-7.59-6.15-11.37-9.22-3.68-7.63-7.75-14.85-9.73-22.47q-5.18-.6-10.25-1.54a200.18,200.18,0,0,1,13.81,45.94c.47,4.83.95,10.1-2.84,13.6-6,3.59-15.47,2.77-22.91,2,1.55.33,3.07.66,4.54,1l-.78,7.25q-4.34-.63-8.67-1a194.59,194.59,0,0,1,23.07,8.74c13.28,8.77,16.59,22.37,16.12,36.85,4.27,0,9.38,0,12.93,0-.95-16.22,4.61-33,21.22-40.4,4.39-1.68,8.83-3.24,13.32-4.63-1.84.18-3.69.38-5.54.65Z" transform="translate(-26.88 -26.59)"/><path class="n" d="M253,497.54c-1.47-.36-3-.69-4.54-1l-2.21-.23c-1.82-.19-3.59-.48-5.34-.81l-2.05,7c1.58.4,3.14.85,4.69,1.31q4.34.39,8.67,1Z" transform="translate(-26.88 -26.59)"/><path class="o" d="M253,497.54c-1.47-.36-3-.69-4.54-1l-2.21-.23c-1.82-.19-3.59-.48-5.34-.81l-2.05,7c1.58.4,3.14.85,4.69,1.31q4.34.39,8.67,1Z" transform="translate(-26.88 -26.59)"/><path class="p" d="M401.15,468.42c1.46-1,2.93-2.06,4.35-3.22l1.37-1.12c-5.78,3.75-11.93,7.67-18.95,9.5l-3.46-.94c-5.64-2.42-7-9.45-8.76-14.91-2.31-15.26-5.44-30.19-4.46-45.5q-4.39,2.94-9,5.58a144.9,144.9,0,0,1-1.81,35.33c-4.94,5.38-9.34-2.77-14-4.17-6.34-5.65-12.89-10.78-17.63-17.08q-5,1.41-10.09,2.47a200.79,200.79,0,0,1,30.41,37.24c2.28,4.27,4.75,9,2.58,13.64-4.33,5.8-13.77,8.65-21,10.79,2-.36,3.88-.71,5.76-1l2,7c-2.78.7-5.52,1.5-8.25,2.35a198.18,198.18,0,0,1,24-.69c15.62,3,23.88,14.31,29,27.87,4-1.57,8.69-3.54,11.95-4.89-7.07-14.64-8.34-32.22,4.15-45.46q5-4.75,10.33-9.19c-1.67.89-3.34,1.81-5,2.78Z" transform="translate(-26.88 -26.59)"/><path class="q" d="M336.44,495c-1.88.3-3.8.65-5.76,1l-1.51.45c-1.75.53-3.51.95-5.25,1.32l.77,7.23c1.85-.27,3.7-.47,5.54-.65,2.73-.85,5.47-1.65,8.25-2.35Z" transform="translate(-26.88 -26.59)"/><path class="r" d="M336.44,495c-1.88.3-3.8.65-5.76,1l-1.51.45c-1.75.53-3.51.95-5.25,1.32l.77,7.23c1.85-.27,3.7-.47,5.54-.65,2.73-.85,5.47-1.65,8.25-2.35Z" transform="translate(-26.88 -26.59)"/><path class="s" d="M461.68,410.67c.83-1.3,1.65-2.64,2.42-4-3.69,5.32-7.69,10.8-13.09,14.89l-3.56.45c-6.12-.07-10.07-6.05-13.79-10.42-8-13.18-16.55-25.75-21.5-40.23-2,2.91-4,5.76-6.19,8.52a145.73,145.73,0,0,1,11.86,33.31c-2.53,6.86-9.71,1-14.57,1.52-8.05-2.83-16.11-5.05-22.91-9.1q-4.1,3.22-8.41,6.15a200.07,200.07,0,0,1,42.47,22.83c3.75,3.06,7.8,6.45,7.61,11.61-1.77,6.95-9.3,13.15-15.15,17.89,1.73-1.12,3.43-2.23,5.11-3.26l4.57,5.69c-2.38,1.77-4.67,3.62-6.93,5.51a198.79,198.79,0,0,1,21.76-9.75c15.58-3.19,27.55,4.08,37.45,14.65,3.05-3,6.67-6.59,9.18-9.09C465.87,457,458,441.26,464.44,424.25c2.12-4.73,4.37-9.4,6.83-14-1.35,1.62-2.67,3.27-3.94,5Z" transform="translate(-26.88 -26.59)"/><path class="t" d="M412,460.82c-1.68,1-3.38,2.14-5.11,3.26l-1.37,1.12c-1.42,1.16-2.89,2.21-4.35,3.22l3.49,6.38c1.64-1,3.31-1.89,5-2.78,2.26-1.89,4.55-3.74,6.93-5.51Z" transform="translate(-26.88 -26.59)"/><path class="u" d="M412,460.82c-1.68,1-3.38,2.14-5.11,3.26l-1.37,1.12c-1.42,1.16-2.89,2.21-4.35,3.22l3.49,6.38c1.64-1,3.31-1.89,5-2.78,2.26-1.89,4.55-3.74,6.93-5.51Z" transform="translate(-26.88 -26.59)"/><path class="v" d="M495.2,335.22q.35-1.94.6-3.9c-1.29,5.76-2.9,11.67-6,17l-3.12,1.8c-5.68,2.26-11.62-1.75-16.72-4.37-8.7-6.4-17.58-12.41-25.59-19.39-2.5,1.65-5,3.25-7.56,4.82a147,147,0,0,1,19.12,22.1c.3,7.32-8.57,4.67-12.86,7-8.41.48-16.61,1.48-24.35.41q-2.52,4.53-5.35,8.87a199.64,199.64,0,0,1,47.6,4.82c4.64,1.4,9.69,3,11.48,7.82,1.1,7.66-4.32,17.1-8,23.9-.12.21-.25.41-.36.62,1.44-2.09,2.84-4.16,4.26-6.1l6.4,3.5c-1.22,2-2.37,4.12-3.49,6.2a203.24,203.24,0,0,1,16-16.84c13.18-8.92,27-6.78,40.21-.8,1.67-3.92,3.63-8.63,5-11.92-15.35-5.32-28.68-16.87-29.22-35.06.15-5.11.42-10.21.93-15.31-.72,2.28-1.4,4.6-2,6.94Z" transform="translate(-26.88 -26.59)"/><path class="w" d="M468.36,400.56c-1.42,1.94-2.82,4-4.26,6.1-.77,1.37-1.59,2.71-2.42,4l5.65,4.55c1.27-1.69,2.59-3.34,3.94-5,1.12-2.08,2.27-4.16,3.49-6.2Z" transform="translate(-26.88 -26.59)"/><path class="x" d="M468.36,400.56c-1.42,1.94-2.82,4-4.26,6.1-.77,1.37-1.59,2.71-2.42,4l5.65,4.55c1.27-1.69,2.59-3.34,3.94-5,1.12-2.08,2.27-4.16,3.49-6.2Z" transform="translate(-26.88 -26.59)"/><path class="y" d="M511.66,264.58A286.48,286.48,0,0,1,475.12,303q2.75-.56,5.5-1c4.83-.49,10.1-.95,13.6,2.83,4,6.65,2.56,17.45,1.77,25.13-.05.48-.12,1-.19,1.44.7-3.1,1.3-6.16,2-9.06l7.25.77c-.36,2.43-.65,4.87-.89,7.3a203.6,203.6,0,0,1,8.06-20.83c8.76-13.27,22.35-16.59,36.83-16.12.07-4.27.07-9.37.07-12.92C534.77,281.3,520,277,511.66,264.58Z" transform="translate(-26.88 -26.59)"/><path class="z" d="M497.8,322.26c-.7,2.9-1.3,6-2,9.06q-.26,2-.6,3.9l7,2c.6-2.34,1.28-4.66,2-6.94.24-2.43.53-4.87.89-7.3Z" transform="translate(-26.88 -26.59)"/><path class="aa" d="M497.8,322.26c-.7,2.9-1.3,6-2,9.06q-.26,2-.6,3.9l7,2c.6-2.34,1.28-4.66,2-6.94.24-2.43.53-4.87.89-7.3Z" transform="translate(-26.88 -26.59)"/><path class="ab" d="M422.2,339.53a143.78,143.78,0,0,1-268.41,0c-2.58-1.38-5.15-2.79-7.69-4.26a148.78,148.78,0,0,0,11.54,26c.68,0,1.35-.07,2-.13l-.61-1.2c.15.07.29.13.43.21a26.88,26.88,0,0,0,1.14,3.54,27.2,27.2,0,0,0,3.85,6.56l-1.41-.08c.47.71.94,1.42,1.42,2.12.17-.42.35-.83.51-1.25a3.49,3.49,0,0,0-.44-.93l.47-.25a25.4,25.4,0,0,0,6.28,9.93s.05,0,.07.06a.43.43,0,0,1,0,.05l-.23-.22c-.19.31-.36.63-.54.95A150.38,150.38,0,0,0,196.21,406l1.7-.84-1-.88a3.88,3.88,0,0,1,.48,0,29.17,29.17,0,0,0,2.39,2.83,27.29,27.29,0,0,0,5.62,4.31,4.28,4.28,0,0,0-.38-.29l.34-.42a25.11,25.11,0,0,0,9.6,6.77.29.29,0,0,0,.1,0v0l-.29-.1c0,.27-.07.54-.1.81a148.88,148.88,0,0,0,33.46,13.81c.37-.43.75-.85,1.12-1.29l-1.28-.42.45-.15a25.69,25.69,0,0,0,3.31,1.7,27.79,27.79,0,0,0,7.38,1.92l-.77.68,2.09.4c-.14-.33-.27-.66-.42-1-.34-.19,10.56,1.74,10.46,1.75.06.26.14.52.21.78a150.13,150.13,0,0,0,36.25-.18c.16-.49.34-1,.49-1.47,0,0,8-.31,10.27-1-.13.25-.24.5-.36.74l1.39-.28c-.24-.22-.46-.45-.7-.68a3.69,3.69,0,0,0-1,.06l-.06-.54a25.3,25.3,0,0,0,11.57-2l.09,0h0a2.59,2.59,0,0,0-.29.14c.15.19.31.38.46.58a148.53,148.53,0,0,0,33.46-14.08c0-.48-.06-1-.1-1.45l-1.22.6.23-.43a26.29,26.29,0,0,0,3.53-1.14,26.72,26.72,0,0,0,6.58-3.86c0,.23,0,.46,0,.7l.7-.48-.79-.32a3.58,3.58,0,0,0-.92.45l-.26-.47a25.13,25.13,0,0,0,9.92-6.27.44.44,0,0,0,.07-.09h0c-.07.09-.15.16-.2.24l.55.31A150,150,0,0,0,406,379.87c-.22-.44-.43-.89-.66-1.33l-.89,1c0-.16,0-.32.05-.49a27.94,27.94,0,0,0,2.82-2.39,27,27,0,0,0,4.6-6.09c.08.25.18.5.27.76l1.21-1.85h-1.22a3.61,3.61,0,0,0-.68.75l-.42-.33a25.38,25.38,0,0,0,6.78-9.59s0-.07,0-.11h0c0,.1-.08.2-.11.29.31.05.63.08.94.12a148.22,148.22,0,0,0,11.17-25.36C427.35,336.73,424.79,338.14,422.2,339.53Z" transform="translate(-26.88 -26.59)"/><path class="ac" d="M205.7,411.83l-1,.35,1.08.72c0-.33,0-.67,0-1Z" transform="translate(-26.88 -26.59)"/><path class="ad" d="M160.63,363.7a26.88,26.88,0,0,1-1.14-3.54c-.14-.08-.28-.14-.43-.21l.61,1.2c-.68.06-1.35.09-2,.13q2.56,4.56,5.43,8.9l1.41.08A27.2,27.2,0,0,1,160.63,363.7Z" transform="translate(-26.88 -26.59)"/><path class="ae" d="M160.63,363.7a26.88,26.88,0,0,1-1.14-3.54c-.14-.08-.28-.14-.43-.21l.61,1.2c-.68.06-1.35.09-2,.13q2.56,4.56,5.43,8.9l1.41.08A27.2,27.2,0,0,1,160.63,363.7Z" transform="translate(-26.88 -26.59)"/><path class="af" d="M205.38,411.5a27.29,27.29,0,0,1-5.62-4.31,29.17,29.17,0,0,1-2.39-2.83,3.88,3.88,0,0,0-.48,0l1,.88-1.7.84q4.13,3.21,8.48,6.14l1-.35A3.37,3.37,0,0,0,205.38,411.5Z" transform="translate(-26.88 -26.59)"/><path class="ag" d="M205.38,411.5a27.29,27.29,0,0,1-5.62-4.31,29.17,29.17,0,0,1-2.39-2.83,3.88,3.88,0,0,0-.48,0l1,.88-1.7.84q4.13,3.21,8.48,6.14l1-.35A3.37,3.37,0,0,0,205.38,411.5Z" transform="translate(-26.88 -26.59)"/><path class="ah" d="M171.39,379.91a.43.43,0,0,0,0-.05s0,0-.07-.06a25.4,25.4,0,0,1-6.28-9.93l-.47.25a3.49,3.49,0,0,1,.44.93c-.16.42-.34.83-.51,1.25q2.92,4.27,6.13,8.34c.18-.32.35-.64.54-.95Z" transform="translate(-26.88 -26.59)"/><path class="ai" d="M171.39,379.91a.43.43,0,0,0,0-.05s0,0-.07-.06a25.4,25.4,0,0,1-6.28-9.93l-.47.25a3.49,3.49,0,0,1,.44.93c-.16.42-.34.83-.51,1.25q2.92,4.27,6.13,8.34c.18-.32.35-.64.54-.95Z" transform="translate(-26.88 -26.59)"/><path class="aj" d="M251.72,432a25.69,25.69,0,0,1-3.31-1.7l-.45.15,1.28.42c-.37.44-.75.86-1.12,1.29q5,1.39,10.21,2.44l.77-.68A27.79,27.79,0,0,1,251.72,432Z" transform="translate(-26.88 -26.59)"/><path class="ak" d="M251.72,432a25.69,25.69,0,0,1-3.31-1.7l-.45.15,1.28.42c-.37.44-.75.86-1.12,1.29q5,1.39,10.21,2.44l.77-.68A27.79,27.79,0,0,1,251.72,432Z" transform="translate(-26.88 -26.59)"/><path class="al" d="M215.05,417.62v0a.29.29,0,0,1-.1,0,25.11,25.11,0,0,1-9.6-6.77l-.34.42a4.28,4.28,0,0,1,.38.29l.46.28-.14.05.06.07c0,.33,0,.67,0,1q4.35,2.87,8.89,5.43c0-.27.05-.54.1-.81Z" transform="translate(-26.88 -26.59)"/><path class="am" d="M215.05,417.62v0a.29.29,0,0,1-.1,0,25.11,25.11,0,0,1-9.6-6.77l-.34.42a4.28,4.28,0,0,1,.38.29l.46.28-.14.05.06.07c0,.33,0,.67,0,1q4.35,2.87,8.89,5.43c0-.27.05-.54.1-.81Z" transform="translate(-26.88 -26.59)"/><path class="an" d="M205.7,411.83l.14-.05-.46-.28A3.37,3.37,0,0,1,205.7,411.83Z" transform="translate(-26.88 -26.59)"/><path class="ao" d="M205.7,411.83l.14-.05-.46-.28A3.37,3.37,0,0,1,205.7,411.83Z" transform="translate(-26.88 -26.59)"/><path class="ap" d="M205.7,411.83l.14-.05-.46-.28A3.37,3.37,0,0,1,205.7,411.83Z" transform="translate(-26.88 -26.59)"/><path class="aq" d="M307.41,434.87c-.15.49-.33,1-.49,1.47q5.26-.66,10.4-1.7c.12-.24.23-.49.36-.74C315.4,434.56,307.41,434.87,307.41,434.87Z" transform="translate(-26.88 -26.59)"/><path class="ar" d="M307.41,434.87c-.15.49-.33,1-.49,1.47q5.26-.66,10.4-1.7c.12-.24.23-.49.36-.74C315.4,434.56,307.41,434.87,307.41,434.87Z" transform="translate(-26.88 -26.59)"/><path class="as" d="M260,434c.15.33.28.66.42,1q5.07.94,10.25,1.54c-.07-.26-.15-.52-.21-.78C270.56,435.73,259.66,433.8,260,434Z" transform="translate(-26.88 -26.59)"/><path class="at" d="M260,434c.15.33.28.66.42,1q5.07.94,10.25,1.54c-.07-.26-.15-.52-.21-.78C270.56,435.73,259.66,433.8,260,434Z" transform="translate(-26.88 -26.59)"/><path class="au" d="M364.7,415.39a26.29,26.29,0,0,1-3.53,1.14l-.23.43,1.22-.6c0,.48.06,1,.1,1.45q4.59-2.64,9-5.58c0-.24,0-.47,0-.7A26.72,26.72,0,0,1,364.7,415.39Z" transform="translate(-26.88 -26.59)"/><path class="av" d="M364.7,415.39a26.29,26.29,0,0,1-3.53,1.14l-.23.43,1.22-.6c0,.48.06,1,.1,1.45q4.59-2.64,9-5.58c0-.24,0-.47,0-.7A26.72,26.72,0,0,1,364.7,415.39Z" transform="translate(-26.88 -26.59)"/><path class="aw" d="M328.63,431.17h0l-.09,0a25.3,25.3,0,0,1-11.57,2l.06.54a3.69,3.69,0,0,1,1-.06c.24.23.46.46.7.68q5.1-1.07,10.09-2.47c-.15-.2-.31-.39-.46-.58A2.59,2.59,0,0,1,328.63,431.17Z" transform="translate(-26.88 -26.59)"/><path class="ax" d="M328.63,431.17h0l-.09,0a25.3,25.3,0,0,1-11.57,2l.06.54a3.69,3.69,0,0,1,1-.06c.24.23.46.46.7.68q5.1-1.07,10.09-2.47c-.15-.2-.31-.39-.46-.58A2.59,2.59,0,0,1,328.63,431.17Z" transform="translate(-26.88 -26.59)"/><path class="ay" d="M407.29,376.68a27.94,27.94,0,0,1-2.82,2.39c0,.17,0,.33-.05.49l.89-1c.23.44.44.89.66,1.33,2.16-2.76,4.22-5.61,6.19-8.52-.09-.26-.19-.51-.27-.76A27,27,0,0,1,407.29,376.68Z" transform="translate(-26.88 -26.59)"/><path class="az" d="M407.29,376.68a27.94,27.94,0,0,1-2.82,2.39c0,.17,0,.33-.05.49l.89-1c.23.44.44.89.66,1.33,2.16-2.76,4.22-5.61,6.19-8.52-.09-.26-.19-.51-.27-.76A27,27,0,0,1,407.29,376.68Z" transform="translate(-26.88 -26.59)"/><path class="ba" d="M380,405.05h0a.44.44,0,0,1-.07.09,25.13,25.13,0,0,1-9.92,6.27l.26.47a3.58,3.58,0,0,1,.92-.45l.79.32q4.32-2.92,8.41-6.15l-.55-.31C379.85,405.21,379.93,405.14,380,405.05Z" transform="translate(-26.88 -26.59)"/><path class="bb" d="M380,405.05h0a.44.44,0,0,1-.07.09,25.13,25.13,0,0,1-9.92,6.27l.26.47a3.58,3.58,0,0,1,.92-.45l.79.32q4.32-2.92,8.41-6.15l-.55-.31C379.85,405.21,379.93,405.14,380,405.05Z" transform="translate(-26.88 -26.59)"/><path class="bc" d="M417.89,360.22h0s0,.06,0,.11a25.38,25.38,0,0,1-6.78,9.59l.42.33a3.61,3.61,0,0,1,.68-.75h1.22q2.82-4.33,5.35-8.87c-.31,0-.63-.07-.94-.12C417.81,360.42,417.85,360.32,417.89,360.22Z" transform="translate(-26.88 -26.59)"/><path class="bd" d="M417.89,360.22h0s0,.06,0,.11a25.38,25.38,0,0,1-6.78,9.59l.42.33a3.61,3.61,0,0,1,.68-.75h1.22q2.82-4.33,5.35-8.87c-.31,0-.63-.07-.94-.12C417.81,360.42,417.85,360.32,417.89,360.22Z" transform="translate(-26.88 -26.59)"/><path class="b" d="M133.2,214.3c-4.29,2.31-13.17-.32-12.86,7A144.82,144.82,0,0,0,144,247.51a148.56,148.56,0,0,1,14-33.56C150.17,212.78,141.8,213.81,133.2,214.3Z" transform="translate(-26.88 -26.59)"/><path class="b" d="M412.89,157.7a145.17,145.17,0,0,0-33.51,12,150.11,150.11,0,0,1,25.9,25.6c4.07-6.82,6.3-14.91,9.13-23C413.9,167.4,419.75,160.22,412.89,157.7Z" transform="translate(-26.88 -26.59)"/><path class="b" d="M421.72,128.08l-.45-3.57c-5.47-7.21-13.4-11.94-20.14-16.74-5.75-2.92-12.26-5.57-17.83-4.76-4.84,1.79-6.42,6.83-7.82,11.48a199.44,199.44,0,0,0-4.81,48.8l.16.16c14.58-4.94,27.21-13.58,40.47-21.6C415.68,138.14,421.65,134.2,421.72,128.08Z" transform="translate(-26.88 -26.59)"/><path class="b" d="M143.88,328a52.35,52.35,0,0,0-4.12,3.51c2.09,1.29,4.21,2.55,6.34,3.77C145.3,332.86,144.56,330.44,143.88,328Z" transform="translate(-26.88 -26.59)"/><path class="b" d="M361.39,157.59a0,0,0,0,1,0,0,2.49,2.49,0,0,1,.29.11c1.29-8,.2-16.54-.28-25.3-2.33-4.28.32-13.16-7-12.86a145.75,145.75,0,0,0-26.77,24.28,148.64,148.64,0,0,1,41.45,18.57,25.94,25.94,0,0,0-7.61-4.74Z" transform="translate(-26.88 -26.59)"/><path class="b" d="M448.71,229.75c1.39-4.68,9.54-9.07,4.16-14a146,146,0,0,0-35-1.82,148.36,148.36,0,0,1,14,33.27C438.07,242.45,443.12,236,448.71,229.75Z" transform="translate(-26.88 -26.59)"/><path class="b" d="M485,224.48c-4.69-2.15-9.37.28-13.64,2.59a199.4,199.4,0,0,0-37,30.16c.12.58.24,1.17.35,1.76,13.64,6.6,28.47,9.4,43.29,13.05,5.72.47,12.73,1.9,17.11-2.37l2.19-2.85c1-7.33-.32-14.67-1.59-21.56C493.56,238,490.7,228.76,485,224.48Z" transform="translate(-26.88 -26.59)"/><path class="b" d="M457.47,200.47c5.45-1.75,12.48-3.11,14.9-8.74l.95-3.47c-2.16-8.27-7.23-15.34-11.48-22-4.44-5.35-9.91-11.21-15.94-12.74-5.15-.19-8.54,3.86-11.61,7.61a200,200,0,0,0-22.83,42.52l.91,1.34C427.53,205.87,442.34,202.78,457.47,200.47Z" transform="translate(-26.88 -26.59)"/><path class="b" d="M158,163.1a145.19,145.19,0,0,0,11.82,33.25,150.32,150.32,0,0,1,25.54-25.75c-6.79-4-14.8-6.23-22.8-9C167.74,162.08,160.55,156.24,158,163.1Z" transform="translate(-26.88 -26.59)"/><path class="b" d="M230.6,126.67c-4.67-1.39-9.08-9.53-14-4.16a145,145,0,0,0-1.8,35.11,148.47,148.47,0,0,1,33.53-13.8C243.54,137.49,237,132.34,230.6,126.67Z" transform="translate(-26.88 -26.59)"/><path class="b" d="M142.17,164.69c-3.7-4.37-7.65-10.35-13.76-10.42l-3.57.45c-6.6,5-11.11,12.06-15.51,18.38-3.19,6.09-6.38,13.24-5.51,19.28,1.78,4.84,6.83,6.41,11.48,7.82A200.27,200.27,0,0,0,163.59,205l.09-.13C158.72,190.42,150.14,177.86,142.17,164.69Z" transform="translate(-26.88 -26.59)"/><path class="b" d="M201.31,117.91c-1.74-5.46-3.12-12.49-8.73-14.91l-3.46-.93c-7.87,2.05-14.63,6.71-21,10.81-5.71,4.65-12.62,10.6-14.29,17.2-.21,5.15,3.86,8.55,7.61,11.62a200.47,200.47,0,0,0,42.32,22.75c.68-.46,1.36-.92,2.05-1.37C206.72,147.89,203.62,133.07,201.31,117.91Z" transform="translate(-26.88 -26.59)"/><path class="b" d="M429.89,335.27c2.33-1.34,4.63-2.73,6.92-4.13q-2.18-2.06-4.46-4C431.6,329.86,430.79,332.58,429.89,335.27Z" transform="translate(-26.88 -26.59)"/><path class="b" d="M273.06,97.72C273.53,92,275,85,270.69,80.6l-2.84-2.2c-8.44-1.17-16.87.77-24.63,2.15-6.65,2.06-14.17,4.87-17.9,9.85-2.15,4.68.3,9.37,2.58,13.65a200.8,200.8,0,0,0,30.54,37.35l1.5-.29C266.59,127.44,269.4,112.57,273.06,97.72Z" transform="translate(-26.88 -26.59)"/><path class="b" d="M285.39,107.79a145,145,0,0,0-15.11,31.74,150.62,150.62,0,0,1,36.25.09c-2-7.67-6.07-14.93-9.77-22.61C293,113.92,292,104.72,285.39,107.79Z" transform="translate(-26.88 -26.59)"/><path class="b" d="M346.87,105.49c2.63-5.09,6.63-11,4.36-16.72l-1.79-3.11a51.4,51.4,0,0,0-13.7-5.23c-1.6-.28-3.2-.55-4.85-.72-7.68-.78-18.48-2.2-25.13,1.77-3.78,3.49-3.31,8.77-2.82,13.59a198.76,198.76,0,0,0,13.91,46.2q3.22.63,6.4,1.4a27.36,27.36,0,0,0-5.9-1.37C329.14,131.09,337.59,118.12,346.87,105.49Z" transform="translate(-26.88 -26.59)"/><path class="b" d="M434.74,316.83a100.26,100.26,0,0,0,9.63,9.49A285.63,285.63,0,0,0,475.12,303,199.54,199.54,0,0,0,435,315.6C434.9,316,434.82,316.42,434.74,316.83Z" transform="translate(-26.88 -26.59)"/><path class="b" d="M288,144.28a143.79,143.79,0,0,0-134.2,195.24,285.08,285.08,0,0,0,268.41,0A143.8,143.8,0,0,0,288,144.28Z" transform="translate(-26.88 -26.59)"/><path class="b" d="M106.3,228.8c-5.09-2.62-11-6.61-16.72-4.35l-3.11,1.78c-3.54,6-5.13,12.85-6.53,19.35-.79,7.63-2,18,1.83,24.51,3.51,3.79,8.77,3.31,13.6,2.83a199.86,199.86,0,0,0,45.89-13.78c.1-.48.18-.95.28-1.43C131.42,246.26,118.7,237.93,106.3,228.8Z" transform="translate(-26.88 -26.59)"/><path class="b" d="M436.51,305.39c7.51-2,14.64-6,22.18-9.64,3.08-3.79,12.29-4.74,9.23-11.37a145.45,145.45,0,0,0-31.55-15.05,149.82,149.82,0,0,1,.14,36.06Z" transform="translate(-26.88 -26.59)"/><path class="b" d="M139.62,269.41c-7.56,2-14.74,6-22.32,9.69-3.08,3.78-12.29,4.74-9.21,11.37a144.82,144.82,0,0,0,31.4,15,150.4,150.4,0,0,1,.13-36Z" transform="translate(-26.88 -26.59)"/><path class="b" d="M141.46,317.9c-.14-.71-.27-1.43-.41-2.15-12.43-6-25.84-8.83-39.34-12.05a286.44,286.44,0,0,0,30.63,23.09C135.47,323.92,138.52,321,141.46,317.9Z" transform="translate(-26.88 -26.59)"/><path class="be" d="M174.7,107.85c-1.48,1-2.94,2.06-4.35,3.22l-2.23,1.81c6.37-4.1,13.13-8.76,21-10.81l3.46.93c5.61,2.42,7,9.45,8.73,14.91,2.31,15.16,5.41,30,4.5,45.17q4.37-2.88,8.95-5.46a145,145,0,0,1,1.8-35.11c5-5.37,9.37,2.77,14,4.16,6.36,5.67,12.94,10.82,17.69,17.15q5-1.38,10.15-2.42a200.8,200.8,0,0,1-30.54-37.35c-2.28-4.28-4.73-9-2.58-13.65,3.73-5,11.25-7.79,17.9-9.85l-2.49.42-2-7c3.37-.85,6.69-1.83,10-2.89a190.49,190.49,0,0,1-25.82.88c-15.62-3-23.89-14.31-29-27.87-4,1.58-8.68,3.53-11.94,4.89,7.07,14.63,8.33,32.21-4.15,45.45-3.36,3.17-6.79,6.24-10.34,9.21,1.28-.7,2.55-1.41,3.81-2.16Z" transform="translate(-26.88 -26.59)"/><path class="be" d="M114.59,163.86c-1,1.49-1.91,3-2.78,4.63-.77,1.43-1.62,3-2.48,4.61,4.4-6.32,8.91-13.39,15.51-18.38l3.57-.45c6.11.07,10.06,6,13.76,10.42,8,13.17,16.55,25.73,21.51,40.2q2.94-4.38,6.17-8.54A145.19,145.19,0,0,1,158,163.1c2.52-6.86,9.71-1,14.56-1.52,8,2.79,16,5,22.8,9q4.06-3.21,8.37-6.15a200.47,200.47,0,0,1-42.32-22.75c-3.75-3.07-7.82-6.47-7.61-11.62,1.67-6.6,8.58-12.55,14.29-17.2-1,.67-2.06,1.32-3.08,1.94l-4.57-5.68c2.38-1.77,4.67-3.62,6.93-5.5A196.75,196.75,0,0,1,144.46,114c-15.58,3.19-27.54-4.08-37.45-14.65-3.05,3-6.67,6.59-9.17,9.09,12.14,10.8,20,26.57,13.57,43.58-1.59,3.55-3.25,7.07-5,10.54.86-1.07,1.71-2.16,2.54-3.26Z" transform="translate(-26.88 -26.59)"/><path class="bf" d="M165,114.82c1-.62,2-1.27,3.08-1.94l2.23-1.81c1.41-1.16,2.87-2.21,4.35-3.22l-3.49-6.37c-1.26.75-2.53,1.46-3.81,2.16-2.26,1.88-4.55,3.73-6.93,5.5Z" transform="translate(-26.88 -26.59)"/><path class="be" d="M165,114.82c1-.62,2-1.27,3.08-1.94l2.23-1.81c1.41-1.16,2.87-2.21,4.35-3.22l-3.49-6.37c-1.26.75-2.53,1.46-3.81,2.16-2.26,1.88-4.55,3.73-6.93,5.5Z" transform="translate(-26.88 -26.59)"/><path class="be" d="M89.58,224.45c5.69-2.26,11.63,1.73,16.72,4.35,12.4,9.13,25.12,17.46,35.24,28.91q1.07-5.16,2.48-10.2a144.82,144.82,0,0,1-23.68-26.24c-.31-7.29,8.57-4.66,12.86-7,8.6-.49,17-1.52,24.87-.35q2.61-4.57,5.52-8.93a200.27,200.27,0,0,1-48.29-4.82c-4.65-1.41-9.7-3-11.48-7.82-.87-6,2.32-13.19,5.51-19.28-.61.89-1.23,1.76-1.84,2.61l-6.41-3.5c1.9-3.16,3.65-6.39,5.31-9.65A192.11,192.11,0,0,1,89,181.1c-13.17,8.91-27,6.77-40.2.8-1.69,3.92-3.64,8.64-5,11.91C59.16,199.15,72.5,210.69,73,228.88c-.13,4.83-.38,9.65-.84,14.48.59-1.91,1.15-3.84,1.65-5.79l7,2c-.33,1.76-.62,3.54-.8,5.35,0,.2-.05.41-.07.62,1.4-6.5,3-13.32,6.53-19.35Z" transform="translate(-26.88 -26.59)"/><path class="bg" d="M107.49,175.71c.61-.85,1.23-1.72,1.84-2.61.86-1.63,1.71-3.18,2.48-4.61.87-1.61,1.81-3.14,2.78-4.63l-5.66-4.56c-.83,1.1-1.68,2.19-2.54,3.26-1.66,3.26-3.41,6.49-5.31,9.65Z" transform="translate(-26.88 -26.59)"/><path class="be" d="M107.49,175.71c.61-.85,1.23-1.72,1.84-2.61.86-1.63,1.71-3.18,2.48-4.61.87-1.61,1.81-3.14,2.78-4.63l-5.66-4.56c-.83,1.1-1.68,2.19-2.54,3.26-1.66,3.26-3.41,6.49-5.31,9.65Z" transform="translate(-26.88 -26.59)"/><path class="be" d="M101.71,303.7c13.5,3.22,26.91,6.07,39.34,12.05q-1-5.08-1.56-10.29a144.82,144.82,0,0,1-31.4-15c-3.08-6.63,6.13-7.59,9.21-11.37,7.58-3.66,14.76-7.7,22.32-9.69.43-3.46,1-6.89,1.64-10.27a199.86,199.86,0,0,1-45.89,13.78c-4.83.48-10.09,1-13.6-2.83-3.85-6.48-2.62-16.88-1.83-24.51-.49,2.28-1,4.53-1.48,6.69l-7.25-.78q.6-4.06,1-8.13a197.5,197.5,0,0,1-8,21A287,287,0,0,0,101.71,303.7Z" transform="translate(-26.88 -26.59)"/><path class="bh" d="M80.81,239.61l-7-2c-.5,2-1.06,3.88-1.65,5.79q-.37,4.06-1,8.13l7.25.78c.52-2.16,1-4.41,1.48-6.69,0-.21,0-.42.07-.62C80.19,243.15,80.48,241.37,80.81,239.61Z" transform="translate(-26.88 -26.59)"/><path class="be" d="M80.81,239.61l-7-2c-.5,2-1.06,3.88-1.65,5.79q-.37,4.06-1,8.13l7.25.78c.52-2.16,1-4.41,1.48-6.69,0-.21,0-.42.07-.62C80.19,243.15,80.48,241.37,80.81,239.61Z" transform="translate(-26.88 -26.59)"/><path class="bi" d="M141.46,317.9c-2.94,3.06-6,6-9.12,8.89,2.45,1.6,4.91,3.17,7.42,4.7a52.35,52.35,0,0,1,4.12-3.51C143,324.67,142.15,321.31,141.46,317.9Z" transform="translate(-26.88 -26.59)"/><path class="bj" d="M434.74,316.83q-1,5.21-2.39,10.27,2.28,2,4.46,4c2.55-1.57,5.06-3.17,7.56-4.82A100.26,100.26,0,0,1,434.74,316.83Z" transform="translate(-26.88 -26.59)"/><path class="be" d="M504.11,246c.18,1.83.38,3.65.65,5.48l-7.23.77c-.37-1.74-.78-3.5-1.3-5.24l-.53-1.76c1.27,6.89,2.62,14.23,1.59,21.56l-2.19,2.85c-4.38,4.27-11.39,2.84-17.11,2.37-14.82-3.65-29.65-6.45-43.29-13.05q1,5.11,1.67,10.34a145.45,145.45,0,0,1,31.55,15.05c3.06,6.63-6.15,7.58-9.23,11.37-7.54,3.62-14.67,7.64-22.18,9.64-.4,3.44-.91,6.85-1.54,10.21A199.54,199.54,0,0,1,475.12,303a286.48,286.48,0,0,0,36.54-38.38,35.51,35.51,0,0,1-3-5.34C507,254.87,505.5,250.48,504.11,246Z" transform="translate(-26.88 -26.59)"/><path class="be" d="M468.13,174.36c-1-1.46-2.06-2.93-3.21-4.34-1-1.18-2-2.46-3.08-3.78,4.25,6.68,9.32,13.75,11.48,22l-.95,3.47c-2.42,5.63-9.45,7-14.9,8.74-15.13,2.31-29.94,5.4-45.1,4.5q2.91,4.36,5.53,8.93a146,146,0,0,1,35,1.82c5.38,5-2.77,9.35-4.16,14-5.59,6.24-10.64,12.7-16.83,17.42q1.41,5,2.47,10.06a199.4,199.4,0,0,1,37-30.16c4.27-2.31,9-4.74,13.64-2.59,5.72,4.28,8.58,13.56,10.72,20.78-.34-1.88-.68-3.74-1-5.55l7-2.05c.71,2.82,1.52,5.6,2.38,8.35a197,197,0,0,1-.69-24c3-15.63,14.3-23.9,27.86-29-1.58-4-3.53-8.69-4.89-12-14.62,7.09-32.21,8.35-45.45-4.14q-4.21-4.47-8.23-9.17c.59,1.06,1.19,2.12,1.81,3.17Z" transform="translate(-26.88 -26.59)"/><path class="bk" d="M494.73,239.71c.29,1.81.63,3.67,1,5.55l.53,1.76c.52,1.74.93,3.5,1.3,5.24l7.23-.77c-.27-1.83-.47-3.65-.65-5.48-.86-2.75-1.67-5.53-2.38-8.35Z" transform="translate(-26.88 -26.59)"/><path class="be" d="M494.73,239.71c.29,1.81.63,3.67,1,5.55l.53,1.76c.52,1.74.93,3.5,1.3,5.24l7.23-.77c-.27-1.83-.47-3.65-.65-5.48-.86-2.75-1.67-5.53-2.38-8.35Z" transform="translate(-26.88 -26.59)"/><path class="be" d="M411.83,113.78c-1.5-1-3-1.91-4.63-2.78-1.86-1-3.91-2.14-6.07-3.23,6.74,4.8,14.67,9.53,20.14,16.74l.45,3.57c-.07,6.12-6,10.06-10.42,13.77-13.26,8-25.89,16.66-40.47,21.6l.12.13q4.32,2.89,8.43,6.07a145.17,145.17,0,0,1,33.51-12c6.86,2.52,1,9.7,1.52,14.56-2.83,8.08-5.06,16.17-9.13,23,2.16,2.72,4.21,5.52,6.18,8.38a200,200,0,0,1,22.83-42.52c3.07-3.75,6.46-7.8,11.61-7.61,6,1.53,11.5,7.39,15.94,12.74-.44-.68-.87-1.36-1.28-2l5.68-4.58c2.07,2.79,4.24,5.48,6.47,8.1A191,191,0,0,1,462,144.15c-3.18-15.6,4.08-27.55,14.65-37.46-3-3.06-6.59-6.67-9.1-9.19-10.8,12.15-26.57,20-43.58,13.58q-4.87-2.19-9.66-4.58c.69.55,1.38,1.09,2.09,1.62Z" transform="translate(-26.88 -26.59)"/><path class="bl" d="M460.56,164.2c.41.68.84,1.36,1.28,2,1.09,1.32,2.12,2.6,3.08,3.78,1.15,1.41,2.2,2.88,3.21,4.34l6.39-3.47c-.62-1-1.22-2.11-1.81-3.17-2.23-2.62-4.4-5.31-6.47-8.1Z" transform="translate(-26.88 -26.59)"/><path class="be" d="M460.56,164.2c.41.68.84,1.36,1.28,2,1.09,1.32,2.12,2.6,3.08,3.78,1.15,1.41,2.2,2.88,3.21,4.34l6.39-3.47c-.62-1-1.22-2.11-1.81-3.17-2.23-2.62-4.4-5.31-6.47-8.1Z" transform="translate(-26.88 -26.59)"/><path class="be" d="M336.24,80.51l-.5-.08a51.4,51.4,0,0,1,13.7,5.23l1.79,3.11c2.27,5.68-1.73,11.63-4.36,16.72-9.28,12.63-17.73,25.6-29.52,35.81a27.36,27.36,0,0,1,5.9,1.37c1.47.35,2.94.73,4.4,1.13a145.75,145.75,0,0,1,26.77-24.28c7.29-.3,4.64,8.58,7,12.86.48,8.76,1.57,17.27.28,25.3a2.49,2.49,0,0,0-.29-.11,0,0,0,0,0,0,0l.1,0a25.94,25.94,0,0,1,7.61,4.74l1.68,1.1.05,0-.16-.16a199.44,199.44,0,0,1,4.81-48.8c1.4-4.65,3-9.69,7.82-11.48,5.57-.81,12.08,1.84,17.83,4.76l-.85-.61,3.5-6.4c3.45,2.06,7,3.95,10.52,5.74a188.33,188.33,0,0,1-19.72-18.3c-8.91-13.18-6.78-27-.79-40.2-3.92-1.69-8.65-3.64-11.92-5C376.54,58.35,365,71.68,346.8,72.21c-5.54-.16-11.09-.46-16.63-1.06,2.66.87,5.37,1.68,8.12,2.39Z" transform="translate(-26.88 -26.59)"/><path class="bm" d="M400.28,107.16l.85.61c2.16,1.09,4.21,2.23,6.07,3.23,1.59.87,3.13,1.81,4.63,2.78l4.56-5.66c-.71-.53-1.4-1.07-2.09-1.62-3.56-1.79-7.07-3.68-10.52-5.74Z" transform="translate(-26.88 -26.59)"/><path class="be" d="M400.28,107.16l.85.61c2.16,1.09,4.21,2.23,6.07,3.23,1.59.87,3.13,1.81,4.63,2.78l4.56-5.66c-.71-.53-1.4-1.07-2.09-1.62-3.56-1.79-7.07-3.68-10.52-5.74Z" transform="translate(-26.88 -26.59)"/><path class="bn" d="M370.83,163.45l-.05,0,.17.11Z" transform="translate(-26.88 -26.59)"/><path class="bo" d="M370.83,163.45l-.05,0,.17.11Z" transform="translate(-26.88 -26.59)"/><path class="be" d="M253.12,77.85c-1.75.37-3.5.78-5.26,1.3-1.45.44-3,.9-4.64,1.4,7.76-1.38,16.19-3.32,24.63-2.15l2.84,2.2C275,85,273.53,92,273.06,97.72c-3.66,14.85-6.47,29.72-13.12,43.39q5.12-1,10.34-1.58a145,145,0,0,1,15.11-31.74c6.64-3.07,7.58,6.13,11.37,9.22,3.7,7.68,7.81,14.94,9.77,22.61q5.22.65,10.32,1.65a198.76,198.76,0,0,1-13.91-46.2c-.49-4.82-1-10.1,2.82-13.59,6.65-4,17.45-2.55,25.13-1.77,1.65.17,3.25.44,4.85.72-4.21-1.06-8.41-1.83-12.33-2.77l.79-7.26q3,.43,6,.75a207.55,207.55,0,0,1-19.65-7.67c-13.28-8.76-16.6-22.36-16.13-36.83-4.26-.06-9.37-.07-12.92-.06.95,16.22-4.62,33-21.21,40.4-3.84,1.46-7.7,2.84-11.61,4.09,1.23-.13,2.45-.29,3.68-.46Z" transform="translate(-26.88 -26.59)"/><path class="bp" d="M240.73,81l2.49-.42c1.62-.5,3.19-1,4.64-1.4,1.76-.52,3.51-.93,5.26-1.3l-.79-7.23c-1.23.17-2.45.33-3.68.46-3.28,1.06-6.6,2-10,2.89Z" transform="translate(-26.88 -26.59)"/><path class="be" d="M240.73,81l2.49-.42c1.62-.5,3.19-1,4.64-1.4,1.76-.52,3.51-.93,5.26-1.3l-.79-7.23c-1.23.17-2.45.33-3.68.46-3.28,1.06-6.6,2-10,2.89Z" transform="translate(-26.88 -26.59)"/><path class="bq" d="M323.41,77.66c3.92.94,8.12,1.71,12.33,2.77l.5.08,2.05-7c-2.75-.71-5.46-1.52-8.12-2.39q-3-.32-6-.75Z" transform="translate(-26.88 -26.59)"/><path class="be" d="M323.41,77.66c3.92.94,8.12,1.71,12.33,2.77l.5.08,2.05-7c-2.75-.71-5.46-1.52-8.12-2.39q-3-.32-6-.75Z" transform="translate(-26.88 -26.59)"/><path class="br" d="M142.34,317a3.38,3.38,0,0,0,0-.64c-.42-.22-.85-.41-1.28-.62.14.72.27,1.44.41,2.15Z" transform="translate(-26.88 -26.59)"/><path class="bs" d="M163.68,204.89l-.09.13h.14A.69.69,0,0,0,163.68,204.89Z" transform="translate(-26.88 -26.59)"/><path class="bt" d="M411.39,204.92l1,.05-.91-1.34c-.1.25-.2.49-.29.73A2.33,2.33,0,0,0,411.39,204.92Z" transform="translate(-26.88 -26.59)"/><path class="bu" d="M259.53,142l.41-.87-1.5.29.57.56A4.79,4.79,0,0,0,259.53,142Z" transform="translate(-26.88 -26.59)"/><path class="bv" d="M141.33,304.76c.1.13.21.24.31.37a25.32,25.32,0,0,0,.65,10.87v0l.53-.05a25.28,25.28,0,0,0,2,11.56.19.19,0,0,0,0,.09s0,0,0,0-.08-.2-.13-.29c-.29.21-.56.44-.84.65.68,2.46,1.42,4.88,2.22,7.28,2.54,1.47,5.11,2.88,7.69,4.26a143.72,143.72,0,1,1,268.41,0c2.59-1.39,5.15-2.8,7.69-4.26.9-2.69,1.71-5.41,2.46-8.17-.41-.35-.81-.72-1.23-1.07l-.43,1.29c-.05-.16-.1-.3-.14-.46a27.58,27.58,0,0,0,1.69-3.3,26.72,26.72,0,0,0,1.92-7.37c.19.21.39.42.58.64.08-.41.16-.82.23-1.23l-1.28.55a2.82,2.82,0,0,0-.34,1l-.52-.16a25.1,25.1,0,0,0,2.59-11.46s0-.06,0-.1l0,0c0,.09,0,.21,0,.3.36-.08.71-.2,1.07-.29a149.82,149.82,0,0,0-.14-36.06l-1.79-.61.09,1.36-.31-.37a25.94,25.94,0,0,0-.75-11.25l1.09.53c-.11-.59-.23-1.18-.35-1.76l-.92.94a2.89,2.89,0,0,0,0,1l-.52.06a25.61,25.61,0,0,0-2-11.58s0-.05-.06-.09l0,0a1.85,1.85,0,0,1,.13.29c.29-.21.57-.45.85-.67a148.36,148.36,0,0,0-14-33.27c-.61,0-1.21.07-1.81.12l.6,1.22c-.15-.09-.29-.14-.43-.23a28.16,28.16,0,0,0-1.12-3.53,27.77,27.77,0,0,0-3.58-6.17l-.42.23a25.26,25.26,0,0,0-6.29-9.92s-.05,0-.08-.07v0l.24.22c.1-.16.18-.32.27-.48a150.11,150.11,0,0,0-25.9-25.6l-1.12.55,1,.9-.48,0a27,27,0,0,0-2.4-2.82,26.72,26.72,0,0,0-5.13-4l-.17.21c-.2-.24-.42-.46-.63-.68l-.14-.09.05,0c-.41-.42-.83-.84-1.27-1.24a148.64,148.64,0,0,0-41.45-18.57l-.46.53,1.3.44c-.17,0-.32.1-.47.14a27.61,27.61,0,0,0-3.3-1.7c-.5-.2-1-.37-1.47-.54q-3.18-.76-6.4-1.4c.1.24.2.49.31.73a3.27,3.27,0,0,0,1,.35l-.15.51a25.35,25.35,0,0,0-11.46-2.58h-.11l0,0,.31,0c-.05-.21-.12-.42-.17-.63a150.62,150.62,0,0,0-36.25-.09c-.18.53-.37,1.06-.54,1.6l1.36-.1c-.13.1-.25.22-.38.31A25.88,25.88,0,0,0,267,141a27.69,27.69,0,0,0-7,.9l.06.5a25.29,25.29,0,0,0-11.59,2l-.08,0h0l.29-.14c-.13-.18-.27-.35-.4-.52a148.47,148.47,0,0,0-33.53,13.8c0,.56.06,1.12.11,1.68l1.21-.61c-.08.14-.14.29-.22.44a25.33,25.33,0,0,0-3.54,1.12,27.16,27.16,0,0,0-6.57,3.86c0-.34,0-.69.06-1-.69.45-1.37.91-2.05,1.37l.93.38a4,4,0,0,0,.93-.44l.26.46a25.28,25.28,0,0,0-9.94,6.29s0,.05-.06.07h0a2.29,2.29,0,0,0,.21-.23l-.67-.38a150.32,150.32,0,0,0-25.54,25.75c.23.46.45.93.68,1.39l.9-1c0,.16,0,.33-.05.49a29.17,29.17,0,0,0-2.83,2.39,27.26,27.26,0,0,0-3.74,4.67l.4.33a25.22,25.22,0,0,0-6.77,9.6.16.16,0,0,0,0,.1h0c0-.1.07-.2.1-.3-.13,0-.27,0-.41-.05a148.56,148.56,0,0,0-14,33.56c.38.33.74.66,1.12,1l.44-1.28c0,.15.1.3.14.45A29.33,29.33,0,0,0,144,251a26.83,26.83,0,0,0-1.91,7.38l-.57-.64c-.1.48-.18,1-.28,1.43.35-.15.7-.29,1-.45a3.12,3.12,0,0,0,.35-1l.51.15a25.19,25.19,0,0,0-2.58,11.46.44.44,0,0,0,0,.1s0,0,0,0,0-.22,0-.32c-.31.07-.62.18-.93.26a150.4,150.4,0,0,0-.13,36l1.93.65Z" transform="translate(-26.88 -26.59)"/><path class="bw" d="M205.75,164.11a27.16,27.16,0,0,1,6.57-3.86,25.33,25.33,0,0,1,3.54-1.12c.08-.15.14-.3.22-.44l-1.21.61c-.05-.56-.07-1.12-.11-1.68q-4.57,2.58-8.95,5.46C205.79,163.42,205.78,163.77,205.75,164.11Z" transform="translate(-26.88 -26.59)"/><path class="bx" d="M205.75,164.11a27.16,27.16,0,0,1,6.57-3.86,25.33,25.33,0,0,1,3.54-1.12c.08-.15.14-.3.22-.44l-1.21.61c-.05-.56-.07-1.12-.11-1.68q-4.57,2.58-8.95,5.46C205.79,163.42,205.78,163.77,205.75,164.11Z" transform="translate(-26.88 -26.59)"/><path class="by" d="M259.53,142a4.79,4.79,0,0,1-.52,0l-.57-.56q-5.15,1-10.15,2.42c.13.17.27.34.4.52l-.29.14h0l.08,0a25.29,25.29,0,0,1,11.59-2l-.06-.5c-.19.05-.39.09-.57.15A1.17,1.17,0,0,1,259.53,142Z" transform="translate(-26.88 -26.59)"/><path class="bz" d="M259.53,142a4.79,4.79,0,0,1-.52,0l-.57-.56q-5.15,1-10.15,2.42c.13.17.27.34.4.52l-.29.14h0l.08,0a25.29,25.29,0,0,1,11.59-2l-.06-.5c-.19.05-.39.09-.57.15A1.17,1.17,0,0,1,259.53,142Z" transform="translate(-26.88 -26.59)"/><path class="ca" d="M163.73,205h.37a3.07,3.07,0,0,0,.69-.77h0a27.26,27.26,0,0,1,3.74-4.67,29.17,29.17,0,0,1,2.83-2.39c0-.16,0-.33.05-.49l-.9,1c-.23-.46-.45-.93-.68-1.39q-3.22,4.16-6.17,8.54A.69.69,0,0,1,163.73,205Z" transform="translate(-26.88 -26.59)"/><path class="cb" d="M163.73,205h.37a3.07,3.07,0,0,0,.69-.77h0a27.26,27.26,0,0,1,3.74-4.67,29.17,29.17,0,0,1,2.83-2.39c0-.16,0-.33.05-.49l-.9,1c-.23-.46-.45-.93-.68-1.39q-3.22,4.16-6.17,8.54A.69.69,0,0,1,163.73,205Z" transform="translate(-26.88 -26.59)"/><path class="cc" d="M196.06,171a2.29,2.29,0,0,1-.21.23h0s0-.06.06-.07a25.28,25.28,0,0,1,9.94-6.29l-.26-.46a4,4,0,0,1-.93.44l-.93-.38q-4.31,2.94-8.37,6.15Z" transform="translate(-26.88 -26.59)"/><path class="cd" d="M196.06,171a2.29,2.29,0,0,1-.21.23h0s0-.06.06-.07a25.28,25.28,0,0,1,9.94-6.29l-.26-.46a4,4,0,0,1-.93.44l-.93-.38q-4.31,2.94-8.37,6.15Z" transform="translate(-26.88 -26.59)"/><path class="ce" d="M142.11,258.35A26.83,26.83,0,0,1,144,251a29.33,29.33,0,0,1,1.7-3.31c0-.15-.1-.3-.14-.45l-.44,1.28c-.38-.32-.74-.65-1.12-1q-1.41,5-2.48,10.2Z" transform="translate(-26.88 -26.59)"/><path class="cf" d="M142.11,258.35A26.83,26.83,0,0,1,144,251a29.33,29.33,0,0,1,1.7-3.31c0-.15-.1-.3-.14-.45l-.44,1.28c-.38-.32-.74-.65-1.12-1q-1.41,5-2.48,10.2Z" transform="translate(-26.88 -26.59)"/><path class="cg" d="M163.73,205h-.14q-2.91,4.36-5.52,8.93c.14,0,.28,0,.41.05,0,.1-.07.2-.1.3h0a.16.16,0,0,1,0-.1,25.22,25.22,0,0,1,6.77-9.6l-.4-.33c-.3.47-.59.94-.85,1.42C163.89,205.46,163.81,205.24,163.73,205Z" transform="translate(-26.88 -26.59)"/><path class="ch" d="M163.73,205h-.14q-2.91,4.36-5.52,8.93c.14,0,.28,0,.41.05,0,.1-.07.2-.1.3h0a.16.16,0,0,1,0-.1,25.22,25.22,0,0,1,6.77-9.6l-.4-.33c-.3.47-.59.94-.85,1.42C163.89,205.46,163.81,205.24,163.73,205Z" transform="translate(-26.88 -26.59)"/><path class="ci" d="M164.1,205h-.37c.08.22.16.44.23.66.26-.48.55-1,.85-1.42h0A3.07,3.07,0,0,1,164.1,205Z" transform="translate(-26.88 -26.59)"/><path class="cj" d="M164.1,205h-.37c.08.22.16.44.23.66.26-.48.55-1,.85-1.42h0A3.07,3.07,0,0,1,164.1,205Z" transform="translate(-26.88 -26.59)"/><path class="ck" d="M164.1,205h-.37c.08.22.16.44.23.66.26-.48.55-1,.85-1.42h0A3.07,3.07,0,0,1,164.1,205Z" transform="translate(-26.88 -26.59)"/><path class="cl" d="M140.56,269.47s0,0,0,0a.44.44,0,0,1,0-.1,25.19,25.19,0,0,1,2.58-11.46l-.51-.15a3.12,3.12,0,0,1-.35,1c-.34.16-.69.3-1,.45-.66,3.38-1.21,6.81-1.64,10.27.31-.08.62-.19.93-.26C140.56,269.25,140.56,269.36,140.56,269.47Z" transform="translate(-26.88 -26.59)"/><path class="cm" d="M140.56,269.47s0,0,0,0a.44.44,0,0,1,0-.1,25.19,25.19,0,0,1,2.58-11.46l-.51-.15a3.12,3.12,0,0,1-.35,1c-.34.16-.69.3-1,.45-.66,3.38-1.21,6.81-1.64,10.27.31-.08.62-.19.93-.26C140.56,269.25,140.56,269.36,140.56,269.47Z" transform="translate(-26.88 -26.59)"/><path class="cn" d="M142.29,316a25.32,25.32,0,0,1-.65-10.87c-.1-.13-.21-.24-.31-.37l.09,1.35-1.93-.65q.6,5.21,1.56,10.29c.43.21.86.4,1.28.62C142.32,316.24,142.31,316.12,142.29,316Z" transform="translate(-26.88 -26.59)"/><path class="co" d="M142.29,316a25.32,25.32,0,0,1-.65-10.87c-.1-.13-.21-.24-.31-.37l.09,1.35-1.93-.65q.6,5.21,1.56,10.29c.43.21.86.4,1.28.62C142.32,316.24,142.31,316.12,142.29,316Z" transform="translate(-26.88 -26.59)"/><path class="cp" d="M144.85,327.62s0,0,0,0a.19.19,0,0,1,0-.09,25.28,25.28,0,0,1-2-11.56l-.53.05v0l.09.39,0,0a3.38,3.38,0,0,1,0,.64l-.88.89c.69,3.41,1.51,6.77,2.42,10.08.28-.21.55-.44.84-.65C144.77,327.42,144.8,327.53,144.85,327.62Z" transform="translate(-26.88 -26.59)"/><path class="cq" d="M144.85,327.62s0,0,0,0a.19.19,0,0,1,0-.09,25.28,25.28,0,0,1-2-11.56l-.53.05v0l.09.39,0,0a3.38,3.38,0,0,1,0,.64l-.88.89c.69,3.41,1.51,6.77,2.42,10.08.28-.21.55-.44.84-.65C144.77,327.42,144.8,327.53,144.85,327.62Z" transform="translate(-26.88 -26.59)"/><path class="cr" d="M142.29,316c0,.12,0,.24,0,.37l0,0Z" transform="translate(-26.88 -26.59)"/><path class="cs" d="M142.29,316c0,.12,0,.24,0,.37l0,0Z" transform="translate(-26.88 -26.59)"/><path class="ct" d="M142.29,316c0,.12,0,.24,0,.37l0,0Z" transform="translate(-26.88 -26.59)"/><path class="cu" d="M432.24,323.56a27.58,27.58,0,0,1-1.69,3.3c0,.16.09.3.14.46l.43-1.29c.42.35.82.72,1.23,1.07q1.36-5.07,2.39-10.27c-.19-.22-.39-.43-.58-.64A26.72,26.72,0,0,1,432.24,323.56Z" transform="translate(-26.88 -26.59)"/><path class="cv" d="M432.24,323.56a27.58,27.58,0,0,1-1.69,3.3c0,.16.09.3.14.46l.43-1.29c.42.35.82.72,1.23,1.07q1.36-5.07,2.39-10.27c-.19-.22-.39-.43-.58-.64A26.72,26.72,0,0,1,432.24,323.56Z" transform="translate(-26.88 -26.59)"/><path class="cw" d="M435.43,305.38l0,0s0,.06,0,.1A25.1,25.1,0,0,1,432.83,317l.52.16a2.82,2.82,0,0,1,.34-1l1.28-.55c.63-3.36,1.14-6.77,1.54-10.21-.36.09-.71.21-1.07.29C435.44,305.59,435.44,305.47,435.43,305.38Z" transform="translate(-26.88 -26.59)"/><path class="cx" d="M435.43,305.38l0,0s0,.06,0,.1A25.1,25.1,0,0,1,432.83,317l.52.16a2.82,2.82,0,0,1,.34-1l1.28-.55c.63-3.36,1.14-6.77,1.54-10.21-.36.09-.71.21-1.07.29C435.44,305.59,435.44,305.47,435.43,305.38Z" transform="translate(-26.88 -26.59)"/><path class="cy" d="M434.66,266a27.44,27.44,0,0,1-.3,3.7l.31.37-.09-1.36,1.79.61q-.66-5.24-1.67-10.34l-1.09-.53A27.43,27.43,0,0,1,434.66,266Z" transform="translate(-26.88 -26.59)"/><path class="cz" d="M434.66,266a27.44,27.44,0,0,1-.3,3.7l.31.37-.09-1.36,1.79.61q-.66-5.24-1.67-10.34l-1.09-.53A27.43,27.43,0,0,1,434.66,266Z" transform="translate(-26.88 -26.59)"/><path class="da" d="M411.39,204.92c.07.13.14.26.21.37l0,0a27.77,27.77,0,0,1,3.58,6.17,28.16,28.16,0,0,1,1.12,3.53c.14.09.28.14.43.23l-.6-1.22c.6-.05,1.2-.08,1.81-.12q-2.61-4.58-5.53-8.93Z" transform="translate(-26.88 -26.59)"/><path class="db" d="M411.39,204.92c.07.13.14.26.21.37l0,0a27.77,27.77,0,0,1,3.58,6.17,28.16,28.16,0,0,1,1.12,3.53c.14.09.28.14.43.23l-.6-1.22c.6-.05,1.2-.08,1.81-.12q-2.61-4.58-5.53-8.93Z" transform="translate(-26.88 -26.59)"/><path class="dc" d="M431,247.84a1.85,1.85,0,0,0-.13-.29l0,0s0,0,.06.09a25.61,25.61,0,0,1,2,11.58l.52-.06a2.89,2.89,0,0,1,0-1l.92-.94q-1.07-5.09-2.47-10.06C431.6,247.39,431.32,247.63,431,247.84Z" transform="translate(-26.88 -26.59)"/><path class="dd" d="M431,247.84a1.85,1.85,0,0,0-.13-.29l0,0s0,0,.06.09a25.61,25.61,0,0,1,2,11.58l.52-.06a2.89,2.89,0,0,1,0-1l.92-.94q-1.07-5.09-2.47-10.06C431.6,247.39,431.32,247.63,431,247.84Z" transform="translate(-26.88 -26.59)"/><path class="de" d="M370.32,163.63l.14.09-.09-.11Z" transform="translate(-26.88 -26.59)"/><path class="df" d="M370.32,163.63l.14.09-.09-.11Z" transform="translate(-26.88 -26.59)"/><path class="dg" d="M411.39,204.92a2.33,2.33,0,0,1-.22-.56c.09-.24.19-.48.29-.73-2-2.86-4-5.66-6.18-8.38-.09.16-.17.32-.27.48l-.24-.22v0s.06,0,.08.07a25.26,25.26,0,0,1,6.29,9.92l.42-.23-.29-.4Z" transform="translate(-26.88 -26.59)"/><path class="dh" d="M411.39,204.92a2.33,2.33,0,0,1-.22-.56c.09-.24.19-.48.29-.73-2-2.86-4-5.66-6.18-8.38-.09.16-.17.32-.27.48l-.24-.22v0s.06,0,.08.07a25.26,25.26,0,0,1,6.29,9.92l.42-.23-.29-.4Z" transform="translate(-26.88 -26.59)"/><path class="di" d="M371.43,164l-.17.2a26.72,26.72,0,0,1,5.13,4,27,27,0,0,1,2.4,2.82l.48,0-1-.9,1.12-.55q-4.11-3.18-8.43-6.07A3.6,3.6,0,0,0,371.43,164Z" transform="translate(-26.88 -26.59)"/><path class="dj" d="M371.43,164l-.17.2a26.72,26.72,0,0,1,5.13,4,27,27,0,0,1,2.4,2.82l.48,0-1-.9,1.12-.55q-4.11-3.18-8.43-6.07A3.6,3.6,0,0,0,371.43,164Z" transform="translate(-26.88 -26.59)"/><path class="dk" d="M411.39,204.92h-.12l.29.4,0,0C411.53,205.18,411.46,205.05,411.39,204.92Z" transform="translate(-26.88 -26.59)"/><path class="dl" d="M411.39,204.92h-.12l.29.4,0,0C411.53,205.18,411.46,205.05,411.39,204.92Z" transform="translate(-26.88 -26.59)"/><path class="dm" d="M411.39,204.92h-.12l.29.4,0,0C411.53,205.18,411.46,205.05,411.39,204.92Z" transform="translate(-26.88 -26.59)"/><path class="dn" d="M324.72,143.21a27.61,27.61,0,0,1,3.3,1.7c.15,0,.3-.1.47-.14l-1.3-.44.46-.53c-1.46-.4-2.93-.78-4.4-1.13C323.73,142.84,324.22,143,324.72,143.21Z" transform="translate(-26.88 -26.59)"/><path class="do" d="M324.72,143.21a27.61,27.61,0,0,1,3.3,1.7c.15,0,.3-.1.47-.14l-1.3-.44.46-.53c-1.46-.4-2.93-.78-4.4-1.13C323.73,142.84,324.22,143,324.72,143.21Z" transform="translate(-26.88 -26.59)"/><path class="dp" d="M371.09,164.4l.17-.21-.8-.47C370.67,163.94,370.89,164.16,371.09,164.4Z" transform="translate(-26.88 -26.59)"/><path class="dq" d="M371.09,164.4l.17-.21-.8-.47C370.67,163.94,370.89,164.16,371.09,164.4Z" transform="translate(-26.88 -26.59)"/><path class="dr" d="M369.1,162.37c.44.4.86.82,1.27,1.24l.41-.14Z" transform="translate(-26.88 -26.59)"/><path class="ds" d="M369.1,162.37c.44.4.86.82,1.27,1.24l.41-.14Z" transform="translate(-26.88 -26.59)"/><path class="dt" d="M371,163.58l-.17-.11-.41.14.09.11.8.47.17-.2A3.6,3.6,0,0,1,371,163.58Z" transform="translate(-26.88 -26.59)"/><path class="du" d="M371,163.58l-.17-.11-.41.14.09.11.8.47.17-.2A3.6,3.6,0,0,1,371,163.58Z" transform="translate(-26.88 -26.59)"/><path class="dv" d="M371,163.58l-.17-.11-.41.14.09.11.8.47.17-.2A3.6,3.6,0,0,1,371,163.58Z" transform="translate(-26.88 -26.59)"/><path class="dw" d="M306.7,140.25l-.31,0,0,0h.11A25.35,25.35,0,0,1,318,142.86l.15-.51a3.27,3.27,0,0,1-1-.35c-.11-.24-.21-.49-.31-.73q-5.1-1-10.32-1.65C306.58,139.83,306.65,140,306.7,140.25Z" transform="translate(-26.88 -26.59)"/><path class="dx" d="M306.7,140.25l-.31,0,0,0h.11A25.35,25.35,0,0,1,318,142.86l.15-.51a3.27,3.27,0,0,1-1-.35c-.11-.24-.21-.49-.31-.73q-5.1-1-10.32-1.65C306.58,139.83,306.65,140,306.7,140.25Z" transform="translate(-26.88 -26.59)"/><path class="dy" d="M259.53,142a4.34,4.34,0,0,0,.52-.07v0a27.69,27.69,0,0,1,7-.9,25.88,25.88,0,0,1,3.69.3c.13-.09.25-.21.38-.31l-1.36.1c.17-.54.36-1.07.54-1.6q-5.22.61-10.34,1.58Z" transform="translate(-26.88 -26.59)"/><path class="dz" d="M259.53,142a4.34,4.34,0,0,0,.52-.07v0a27.69,27.69,0,0,1,7-.9,25.88,25.88,0,0,1,3.69.3c.13-.09.25-.21.38-.31l-1.36.1c.17-.54.36-1.07.54-1.6q-5.22.61-10.34,1.58Z" transform="translate(-26.88 -26.59)"/><path class="ea" d="M259.53,142a1.17,1.17,0,0,0,0,.11c.18-.06.38-.1.57-.15v0A4.34,4.34,0,0,1,259.53,142Z" transform="translate(-26.88 -26.59)"/><path class="eb" d="M259.53,142a1.17,1.17,0,0,0,0,.11c.18-.06.38-.1.57-.15v0A4.34,4.34,0,0,1,259.53,142Z" transform="translate(-26.88 -26.59)"/><path class="ec" d="M259.53,142a1.17,1.17,0,0,0,0,.11c.18-.06.38-.1.57-.15v0A4.34,4.34,0,0,1,259.53,142Z" transform="translate(-26.88 -26.59)"/><path class="ed" d="M466.18,288A178.19,178.19,0,0,1,288,466.18c-98.39,0-178.16-79.78-178.16-178.19A178.17,178.17,0,0,1,288,109.82C386.4,109.82,466.18,189.59,466.18,288Z" transform="translate(-26.88 -26.59)"/><path class="b" d="M354.1,205.27c4-.52,8-6.54,8-6.54s6-8.63,19.48-7.85S398.3,196.12,399,199s5.25,3.66,10.74,3.4a10.26,10.26,0,0,1,8.49,4.18s4.74.79,8.24,1.57,0-3.14-.5-4.71a13.46,13.46,0,0,1-.75-6.54c.5-2.35,9.49,2.1,13.23,2.88s2.5-3.14,2.5-3.14l2.5-.52L436,184.55c-.17-.23-.34-.46-.5-.7l-1.22,1.28-3.5-6.28-3-.26-2.25,2.88-2.25-2.62-3.49-1L415,174.14l-3.74-4.45-1.75-1,1.75,4.7,4.49,4.19s1.75,3.66,1.75,4.71-4.24-.52-5.24-.78-5.74-4.45-5.74-4.45l-4.25-4.45-6-4.45s-12-7.59-13.48-7.59-12.24-3.66-12.24-3.66l3.75,3.66,8.24,4.71s7.74,2.62,10.73,3.93a15.41,15.41,0,0,1,5,3.66l-1.5.79,2.24,5.75-4.74-5.23s-7-4.45-11.23-4.45-10-3.66-11.49-4.18-6.24-4.19-6.24-2.62-4.5,1.57-8.74,3.4-.5,6.54-.5,6.54l-3,3.4-1.25,4.71,1.75,5.76,1,5.23-.75,5.5s-.25,1.83-3.74,2.09-6,3.4-6.24,4.71a.69.69,0,0,1-.07.15c.44.22,1.57.3,1.31.61a7.78,7.78,0,0,0-.77,1.08h0C346.11,205.54,350.11,205.8,354.1,205.27Z" transform="translate(-26.88 -26.59)"/><path class="b" d="M337.26,200.54a10.17,10.17,0,0,1-1.69-1.75A15.47,15.47,0,0,1,334,195c.43-6-1.89-10.3-4.49-13.84a2.41,2.41,0,0,0-2.11-1l-4.23-4.81a6.15,6.15,0,0,0-2.75,1,13.83,13.83,0,0,1-4.2,2.47s3.21,3.46,5.18,5.93,2.47,11.37,2.47,11.37l4.94,2.47s1.73,4.2,2.72,4.45,5.43-.75,6.67-.75c.89,0,3.33,1.55,4.61,2.41.46,0,.81-.07,1-.31l-.06,0Z" transform="translate(-26.88 -26.59)"/><path class="b" d="M435.5,183.82l0,0c.16.24.33.47.5.7Z" transform="translate(-26.88 -26.59)"/><path class="b" d="M343.8,204.38c-.15.24-.5.32-1,.31l.82.56-3.58.83,1.79,4.43s.74-3.89,2.47-4.44a7.78,7.78,0,0,1,.77-1.08C345.37,204.68,344.24,204.6,343.8,204.38Z" transform="translate(-26.88 -26.59)"/><path class="b" d="M342.84,204.69a14.62,14.62,0,0,1-3.72-1l1,2.37,3.58-.83Z" transform="translate(-26.88 -26.59)"/><path class="ee" d="M467.7,288A179.7,179.7,0,1,1,288,108.3,179.69,179.69,0,0,1,467.7,288Z" transform="translate(-26.88 -26.59)"/><path class="ef" d="M201.47,281.79c4,.63,6.57-1.43,9.39-2.59l5.31-2.77a3.56,3.56,0,0,1,4.19.87,3.49,3.49,0,0,0,4.18-1.44c.86-1.22,2.23-2,3.5-3.12a22.23,22.23,0,0,0,3.86-.47,21.25,21.25,0,0,1,11,6c5.36,1.93,9.59,5.33,14.45,8.13,4.73,1.41,9.31,3.11,12.05,6.34.93,3.05,3.88,4,7.51,4a51.05,51.05,0,0,1,8.33.36c2.28,1,4,2.76,6.79,3.78a33.14,33.14,0,0,1,6,.79c2.9,1.87,6.17,4.22,8.31,7.58a4.56,4.56,0,0,1-.13,2.92c-3.51,4.74-5.12,11.25-6.77,17.92A29.41,29.41,0,0,1,296,338.8c-1.23,1.93-3.36,2.88-5.2,4.19-2.76,2-6.15,3.4-8.08,5.77a138.64,138.64,0,0,0-6.49,20.7c-.42,1.75-2.52,2.59-4.7,2.46-4.59.69-7.31,3.57-8.24,7.86-.56,2.52-2.4,3.84-4.75,4.61a4,4,0,0,0-2.67,3.92c-.1,2.13-.47,3.71-1.55,4.81a3,3,0,0,0-.7,3.08,22.87,22.87,0,0,1,3.77,9.24c-1.08,2.83,1.26,4.54,2.61,5.95a4.39,4.39,0,0,1,.94,4.48,7,7,0,0,1-3,1,18.1,18.1,0,0,1-7.48-.44c-2.5-.75-3.66-3.08-4.65-5.44-1.47-3.54-3.39-6.8-4.34-10.86,0-4.39-2.53-6.43-3.59-9.57a49.92,49.92,0,0,1-2.35-15.86,16.6,16.6,0,0,0-3.74-7.5,19.07,19.07,0,0,1-2.82-4.43A17.72,17.72,0,0,0,226.64,351l-1-9.08c-1.59-2.84-4.66-4-7.2-5.73a46.23,46.23,0,0,0-6.77-3.31c-3.16-2.33-4.44-6.39-5.9-10.32-1-2.68-2.64-4.72-3.93-7.09-.37-3.37.43-5.84.57-8.82.06-1.53.17-3.38.25-4.89,1.33-1.69,2.58-3.23,3-5.45.58-3.16-.39-5.66-2.08-7.09a4.42,4.42,0,0,0-2.57-.86c-4.9-.38-8.22-2.44-11.44-4.39a11.61,11.61,0,0,1-3-1.92,25.64,25.64,0,0,0-14-8.44c-4.71-3-10.73-4-15.66-6.4-3.56-1.74-5.24-5.46-6.52-9.73-.69-2.29-1.91-4.26-4.41-4.92-3.13-2.19-5.15-5.72-5.56-10.74-.8-2.65-2.54-4.31-3.53-6.69a4.88,4.88,0,0,1,0-3.35,22.52,22.52,0,0,0-.85-14.92A16.62,16.62,0,0,1,136,213c.66-4.57,1.48-8.45,3.72-11.36a6,6,0,0,0,.52-4.67,8.27,8.27,0,0,1,3.07-9.11,4.11,4.11,0,0,0,1.67-4.32c1.18-2.46,2-4.73,3.82-6,.36-1.89,1.54-3.16,2.3-4.66,3.5-6.86,9-12.35,14.51-17.2,4.22-3.72,8.24-7.1,12.81-10.47l8.47-6.55L199.24,131a110.49,110.49,0,0,1,13.46-6.59,5.53,5.53,0,0,1,2.49-.28c.89,2.37,2.56,4.17,3.82,6.66a12.18,12.18,0,0,1,3.56.06,17.84,17.84,0,0,1,3.12,1.72c.58.28,1.45-.17,1.68.39a8.8,8.8,0,0,0,2.61,3.18,55.58,55.58,0,0,0,6.14,5.21c2.43,0,4.69.75,5.28,2.31a7.3,7.3,0,0,1,.43,1.39,18.87,18.87,0,0,1-2.69,12.1,1.55,1.55,0,0,1-1.7.61c-2.14-.41-3.27-2.12-4.1-3.85-.71-1.49-1.17-3.36-2.5-4.25a5.53,5.53,0,0,0-2.31-.71,2.61,2.61,0,0,0-2.6,2.12,3.39,3.39,0,0,1-.82,1.89c-1.17,1.07-3.21,1.11-4.47,2.09a3.69,3.69,0,0,0-1.23,3.28c-1,4.05-5,6.36-9.74,5.36a10.16,10.16,0,0,0-8.14,1.93c-.42,1.31.18,2.63-.17,3.86-.14.51-1.07,1.87-1.19,2.38-.18.75.61,1.17,1.19,1.4a37.6,37.6,0,0,0,3.54,1.45l2.87,3.51c.4.43,1.23.8,1.64.58,2.91-1.52,6.4-2.44,8.77-4.66,2.21-2.06,3.25-5.34,4.43-8.48.17-.45.73-1,1.07-1a26.89,26.89,0,0,0,8-.23,7.16,7.16,0,0,1,6,5.44c.53,2.12.15,4.93.77,6.92a30.74,30.74,0,0,0,4.1,4.32c.91.35,2.23.47,2.87,1.4,1.79,2.64,1.57,7.83-1.2,9.3a13.94,13.94,0,0,1-4.26,1.44c-1.65-.47-3.48-1.31-5.72-2.07a17.6,17.6,0,0,0-8.18,4.34c-.33.32-.65,1.23.08,1.44,1.46.43,2.57-.39,3.8-.85a5.35,5.35,0,0,1,3.52-.13,1.39,1.39,0,0,1,.9,1.31,8.15,8.15,0,0,1-1.88,4.87c-2.23,3.34-6,5.32-10,7.05-3.27,3.33-4.83,8.62-6.73,13.32-3.23,4.22-8.08,6.83-13.32,9.1a3.28,3.28,0,0,0-1.54,4.31,26.83,26.83,0,0,1,2.46,5.62,9.65,9.65,0,0,1-.14,3.08,1.76,1.76,0,0,1-1.3,1.16c-2.75.06-3.92-2-5.25-3.65s-2.82-3.66-5-4.7c-4.31-1-7.91.69-10.85,2.38-1.88.5-4.23.61-5.63,1.88a3.18,3.18,0,0,0-.65,2.18,18.26,18.26,0,0,1-2.08,7.78c-.56,1-.43,2.34-.52,3.59l0,3.85a5.89,5.89,0,0,0,1.24,2.57,2.23,2.23,0,0,0,2.66.27c1.81-1.5,3.07-3.84,5.86-4.48a6.12,6.12,0,0,0,2.81.28c1.66.26,2.25,1.53,2.75,2.6.87,1.88.14,4.06-.48,5.72-.18.51-.26,1.29.11,1.5.93.52,1.89.07,2.8-.06,1.89-.25,2.4,1.26,3.49,1.95" transform="translate(-26.88 -26.59)"/><path class="eg" d="M309.69,446.55c4.41-.67,7.94.54,11.29,1.12,2.42-.79,4.06-1.75,6.29-2.18,7.6.08,13.09,2.4,18.67,4.49a59.86,59.86,0,0,1,8.33,4.22c-2.76,1.27-5.57,2.49-8.24,3.62-13.06,5.49-28.69,8.63-45.88,9.86a177.15,177.15,0,0,1-77.38-11.36,26.85,26.85,0,0,1-5.48-2.31,13.78,13.78,0,0,1,10.56-6l7.88-1.22c5.21-.19,9,1.28,13.15,2.26a25.18,25.18,0,0,1,6.45.63c5.09-.52,7.65-3.74,10.37-6.64a7.58,7.58,0,0,0,2.12-4.18c.67-3.73,3.23-6,6.24-7.5.29-.14,1.1,0,.75,1-.42,1.19-1.54,2.87-2,4.74a3.24,3.24,0,0,0,.68,2.71c1.35,1.77,1.67,4.84,2.19,6.65a12.11,12.11,0,0,0,9.24,4.68c2.62.11,4.74,1,7.17,1.26.67.08,1.49.19,1.94-.23Z" transform="translate(-26.88 -26.59)"/><path class="eh" d="M273.17,138.11a12.51,12.51,0,0,1,.87-2.86,4.87,4.87,0,0,0,.7-4.48,5.74,5.74,0,0,0-1.22-1.77c-1.36-1-3.22-1.68-4.11-3.22.09-1.69,1.16-2.87,1.75-4.31-2.52-1.59-5.08-3.18-6-6.11a.79.79,0,0,0-1.08-.52c-.66-.6.12-1.42.25-2.18a4.37,4.37,0,0,1-2,.27c-.14,0-.41.36-.43.37-2.77.43-5.6.66-8,1a5.22,5.22,0,0,1-3.84.51,1.28,1.28,0,0,0-1.21.38c-1.87,2.16-2.79,5.23-3.7,8.36-.07.22-.29,1.11.43.74.55.4.65,1.17,1.28,1.38.42.14,1.84,0,2.29.08s1.18,0,1.07.55a5.43,5.43,0,0,1-1.13,2.51c-1.34,1.48-1.63,4.18-.93,6.46a6,6,0,0,1,.25,4.06,4.08,4.08,0,0,0,0,3c.52,1.27,1.56,2.22,2.21,3.38,1.06,1.81,2.14,3.76,4,4.56l9.9,3.13a1.37,1.37,0,0,0,1.31-.63c.84-1.39,1.72-3,2.75-4.44A55,55,0,0,0,273.17,138.11Z" transform="translate(-26.88 -26.59)"/><path class="ei" d="M205.14,248.87c-1.72-.29-3.64-.88-5.43-.29a6.32,6.32,0,0,0-.61.22,8.88,8.88,0,0,0-4.12,4.39c.53,1.7,2.24,2.44,4,2.39l12.94-1.87c3.2.54,5.81,1.53,8.75,2.27a4.47,4.47,0,0,0,1.88-.21c.57-.11,1.28-.56,1.19-1.19a5.34,5.34,0,0,0-2.32-3.63c-2.57-.76-5.65-1.14-8.34-2.11Z" transform="translate(-26.88 -26.59)"/><path class="ej" d="M278.65,144.51a3.09,3.09,0,0,1,1.16-.27,20,20,0,0,1,5.51,2.34c.64.39,1.24,1.44.51,2.06a12.7,12.7,0,0,1-2.88,1.65h-3.44a8.34,8.34,0,0,1-3.84-2.27A9.17,9.17,0,0,1,278.65,144.51Z" transform="translate(-26.88 -26.59)"/><path class="ek" d="M467.41,271.57a216.09,216.09,0,0,0-3.77-24.89,327.58,327.58,0,0,0-11-33.49c-3.76-8.08-9.14-17.07-9.14-17.07l-2.5.52s1.25,3.93-2.5,3.14-12.73-5.23-13.23-2.88a13.46,13.46,0,0,0,.75,6.54c.5,1.57,4,5.5.5,4.71s-8.24-1.57-8.24-1.57a10.26,10.26,0,0,0-8.49-4.18c-5.49.26-10-.53-10.74-3.4s-4-7.33-17.47-8.12-19.48,7.85-19.48,7.85-4,6-8,6.54-8,.27-9.74.79h0c-1.57,2.65-1.93,6.59-2.37,10.45-1.53,3.3-3.49,6.2-3.31,11.15-.62,4.29-1.21,8.72-1.88,12.8-.56,3.34-.31,7.36-.23,11,.08,4.86,2.7,7.37,6.14,9.1l2.43,2.52c1.35,1.82,2.13,4.18,3.42,6,2.51,3.48,4.92,7.08,10.26,7.54a27.66,27.66,0,0,0,10.81-1.43,21.35,21.35,0,0,0,9.71-2.4c3.91-1.15,6.82-3.35,11.73-3.38a5,5,0,0,1,2,.72c3.37,1.6,4.3,5.72,5.37,9.63a13.74,13.74,0,0,0,3.95,8.64c1.81,4.23,2.4,9.59,3.59,14.47.71,2.92,1.88,7.39-.16,9.81a6.37,6.37,0,0,0-1.42,4.83l4.95,11.85c.14,3.43-1.14,6-1.72,8.32a98.5,98.5,0,0,0,1.94,15.57c-.22,3.67-1.58,6.1-2.22,9.29a2.28,2.28,0,0,0,1.07,2.7c6.42-.41,12.47-1.31,19.21-1.76a7,7,0,0,0,3.7-1.22c1.61-3.42,3.4-6.88,6.62-8.8a16.92,16.92,0,0,1,3.57-7.09c1.59-1.74,3.8-2.85,5.43-4.59,1.14-3.87,1.48-8.43,2.92-11.79,1.57-3.67,15.63-16.89,15.63-16.89C467.94,300.58,468.49,285.66,467.41,271.57Z" transform="translate(-26.88 -26.59)"/><path class="el" d="M323.16,125.18l6.42,2.47,3.21,1.24,4.7,2,1.72-1.23L336,126.91l-7.41-6.18-4.93-.74-4.7-3.21-3.7-2,2.72-.25,6.42,3.22,9.88,3.46,4.93.49,3,2.47,3.46.25-1.49,2,5.68,5-3.21,1.48s-4.44-1.48-4.19,0-7.41,1.24-7.41,1.24l-2.23-1.73-.74-1.73-3.7-1-2.47,1,6.91,6.92L330.08,141l.74,3.95-1.24,3.71-2,3-2.23,3a6.21,6.21,0,0,0-5.18,2c-2.47,2.48,1.23,2.48,7.41,4.21s12.84,12.35,12.84,12.35a50.32,50.32,0,0,1-7.16,1.24,65.49,65.49,0,0,0-10.09,1l-5,3.68c-1,.17,3.16,4.83,4.5,6.5,1.11,1.39,1.25,3,1.5,5,.33,2.67.33,4.47.49,4.7,1.63,2.21,5.1.69,4.94,3,.38,1.57,2.13,3.11,2.71,4.19.25.46,4.47-.37,4.68-.25l6.75,2.25.06,0a.69.69,0,0,0,.07-.15c.25-1.31,2.74-4.45,6.24-4.71s3.74-2.09,3.74-2.09l.75-5.5-1-5.23-1.75-5.76,1.25-4.71,3-3.4s-3.75-4.71.5-6.54,8.74-1.83,8.74-3.4,4.74,2.09,6.24,2.62,7.24,4.18,11.49,4.18,11.23,4.45,11.23,4.45l4.74,5.23-2.24-5.75,1.5-.79a15.41,15.41,0,0,0-5-3.66c-3-1.31-10.73-3.93-10.73-3.93l-8.24-4.71-3.75-3.66s10.74,3.66,12.24,3.66,13.48,7.59,13.48,7.59l6,4.45,4.25,4.45s4.74,4.18,5.74,4.45,5.24,1.83,5.24.78-1.75-4.71-1.75-4.71l-4.49-4.19-1.75-4.7,1.75,1,3.74,4.45,4.75,3.66,3.49,1,2.25,2.62,2.25-2.88,3,.26,3.5,6.28,1.22-1.28a147.51,147.51,0,0,0-22.41-25c-1-.85-1.73-2.24-3.1-2.63,0,0-12.92-11.2-13.37-11.61a51.18,51.18,0,0,0-5.5-4.4c-22.28-15.09-48.15-26.8-81.34-30.67a1.22,1.22,0,0,0-1.23.75c-.24.55.27,1,.28,1.16a16.3,16.3,0,0,1-1.42,8.41,1.74,1.74,0,0,0,.19,1.22c.71,1.23,1.52,2.38,2.33,3.52,2.37,1.4,4.92,2.65,6.35,3.31C319.46,129.38,323.16,125.18,323.16,125.18Z" transform="translate(-26.88 -26.59)"/><polygon class="em" points="369.95 152.74 364.73 153.26 365.25 156.14 372.31 157.97 372.83 155.88 369.95 152.74"/><polygon class="em" points="347.14 151.12 351.59 156.88 355.25 157.92 354.99 154.78 350.28 149.81 347.93 149.55 347.14 151.12"/><polygon class="em" points="342.27 143.3 345.41 147.22 347.24 147.22 344.36 142.78 342.27 143.3"/><polygon class="en" points="290.99 127.63 296.34 124.16 300.43 122.59 299.01 120.68 298.07 119.3 294.76 118.77 290.67 117.04 287.68 115.47 285.79 115.3 285 112.52 282.01 112.52 279.5 111.13 278.24 112.87 281.07 114.95 282.01 117.21 283.27 118.43 285.63 117.91 288.47 118.25 289.73 120.16 287.37 119.81 289.41 121.72 289.41 123.46 291.77 124.33 290.99 127.63"/><polygon class="en" points="282.06 118.97 284.41 120.49 286.59 122.17 287.43 124.01 283.9 126.2 280.71 126.03 280.71 123.34 279.04 122.5 278.53 121.16 279.54 120.82 279.54 119.48 282.06 118.97"/><polygon class="eo" points="204.14 227.11 204.14 229.79 198.1 231.13 202.8 232.47 210.18 232.47 215.55 234.49 212.19 229.12 209.51 225.76 204.14 227.11"/><path class="ep" d="M124.38,343.26C135,342,140,340.77,140,329.06V245c-9.93-12.24-12.77-12.78-15.08-12.78v-4.43h37.44l61.55,75.75h.35V249.77c0-10.65-2.13-16.5-16.49-17.57v-4.43H245.9v4.43c-12.77,1.6-13.85,5.68-13.85,14.19V350.88h-5l-78.95-96.15h-.36v71c0,12.77,3.73,16.13,16.86,17.56v4.44H124.38Z" transform="translate(-26.88 -26.59)"/><path class="ep" d="M330.49,263.42c-3.2-12.41-13.84-32.81-34.77-32.81-9.22,0-19,5.32-19,16.85,0,9.58,3.38,13.48,18.28,20.93l26.08,12.95A36.74,36.74,0,0,1,340.61,314c0,15.61-11.36,37.08-44,37.08-16.86,0-24.84-6-30.33-6-3.74,0-4.62,3.2-5.33,6h-5.14V307.25H261c3.55,17.91,13.84,38,36.37,38,21.29,0,22.18-17.56,22.18-19.87,0-11.89-8.34-16.14-19.87-21.65L287.74,298c-30.34-14.55-30.34-29.81-30.34-38,0-10.83,5.5-34.95,39.21-34.95,14.2,0,22.52,5.85,27.68,5.85,4.07,0,5-2.66,5.84-6h5.33v38.49Z" transform="translate(-26.88 -26.59)"/><path class="ep" d="M351.05,227.77H451.62v35.65h-4.25c-3.9-18.44-8.69-29.62-39.21-29.62-9.58,0-12.77.71-12.77,8.34v41.15c22,.36,24.66-12.23,27.15-26.42H427v60h-4.43c-2-14.55-4.79-27.5-27.15-27.5v41.33c0,11.71,7.1,12.06,19.52,12.6v4.44H351.05v-4.44c10.11-1.06,15.6-1.6,15.6-12.6V244.79c0-11.7-7.27-12-15.6-12.59Z" transform="translate(-26.88 -26.59)"/><path class="eq" d="M288,106.35A181.65,181.65,0,1,1,106.35,288,181.65,181.65,0,0,1,288,106.35m0,2.25a178.86,178.86,0,1,0,69.83,14.1A178.37,178.37,0,0,0,288,108.6Z" transform="translate(-26.88 -26.59)"/><circle class="er" cx="261.12" cy="261.41" r="179.7"/></g></svg>